<svg width="full" height="full" viewBox="0 0 40 64" fill="none" xmlns="http://www.w3.org/2000/svg">
<path d="M19.1571 27.4251C19.1571 27.4251 18.7265 22.9667 23.3453 21.8309C27.9641 20.695 31.3304 16.41 26.9175 12.874" stroke="#D74747" stroke-width="4" stroke-miterlimit="10"/>
<path d="M14.2731 33.4364L14.3515 28.5951C14.3515 28.5951 18.2623 25.1754 23.6328 27.0877L25.5421 32.2405L14.2731 33.4364Z" fill="#797777"/>
<path d="M27.6329 59.6339C35.4248 56.118 38.8911 46.9511 35.3752 39.1592C31.8592 31.3673 22.6924 27.901 14.9005 31.417C7.10857 34.9329 3.64225 44.0998 7.15822 51.8917C10.6742 59.6836 19.841 63.1499 27.6329 59.6339Z" fill="#8D8D8D"/>
<path d="M24.5717 30.4016C24.7384 30.9543 24.8789 31.5203 24.9854 32.1013C26.5259 40.5097 20.9582 48.575 12.5498 50.1155C10.4656 50.4972 8.40289 50.4411 6.45532 50.0148C8.7014 57.4577 16.2281 62.1847 24.0555 60.7506C32.4639 59.2101 38.0316 51.1449 36.4911 42.7365C35.3326 36.412 30.4825 31.6961 24.5717 30.4016Z" fill="#797777"/>
<path d="M27.1226 31.2012C28.7837 33.1849 29.9724 35.6101 30.472 38.3368C32.0125 46.7452 26.4448 54.8105 18.0364 56.351C15.0139 56.9046 12.0375 56.5358 9.39099 55.4509C12.8522 59.5842 18.3741 61.7917 24.0555 60.7509C32.4639 59.2103 38.0316 51.1451 36.4911 42.7367C35.5045 37.3508 31.8388 33.1346 27.1226 31.2012Z" fill="#4F4F4F"/>
<path d="M27.2746 13.2431C26.9441 13.8106 24.3959 18.4767 24.3959 18.4767L24.1477 13.9607L17.0558 17.1424L21.6237 12.8303L15.2527 12.0427L21.0007 9.03467L18.574 4.48341L22.8503 6.08935L27.2375 0L27.1633 6.31278L34.7606 4.70383L28.3733 10.9421L31.7529 13.5811L27.2746 13.2431Z" fill="#FFBC00"/>
<path d="M23.8417 8.73142C23.8417 8.73142 25.4428 5.61423 25.4624 6.11748C25.4823 6.62073 25.7085 9.04109 25.7085 9.04109L28.2362 8.21611L25.7992 10.3277L25.4848 13.3538L24.3537 10.7372L21.5004 10.9703L23.8417 8.73142Z" fill="#EF6A0F"/>
<path d="M36.4914 42.7365C35.2431 35.922 29.7086 30.9742 23.1796 30.1631C28.0529 32.0329 31.8639 36.3221 32.8731 41.8319C34.4136 50.2403 28.8459 58.3055 20.4375 59.846C18.8436 60.1379 17.2624 60.1735 15.7355 59.9838C18.2994 60.9674 21.1572 61.2816 24.0558 60.7506C32.4642 59.2101 38.0319 51.1449 36.4914 42.7365Z" fill="#5B5A5A"/>
</svg>
