<svg width="325" height="428" viewBox="0 0 325 428" fill="none" xmlns="http://www.w3.org/2000/svg">
<path d="M316.553 284.187V400.324C316.553 401.513 316.117 402.609 315.342 403.437L301.995 417.694C301.232 418.51 300.173 418.977 299.093 418.977H25.9075C24.8271 418.977 23.7685 418.51 23.0046 417.694L9.658 403.437C8.87227 402.609 8.44666 401.513 8.44666 400.324V284.187C8.44666 283.278 8.70857 282.403 9.19966 281.657L18.0283 268.274C18.7922 267.131 19.196 265.779 19.196 264.368V163.632C19.196 162.221 18.7922 160.869 18.0283 159.726L9.19966 146.343C8.70857 145.608 8.44666 144.722 8.44666 143.813V27.6644C8.44666 26.4986 8.87227 25.3911 9.658 24.5634L23.0046 10.3057C23.7685 9.48961 24.8271 9.02329 25.9075 9.02329H299.093C300.173 9.02329 301.232 9.48961 301.995 10.3057L315.342 24.5634C316.117 25.3911 316.553 26.4986 316.553 27.6644V143.813C316.553 144.722 316.291 145.608 315.8 146.343L306.972 159.726C306.208 160.869 305.804 162.221 305.804 163.632V264.368C305.804 265.779 306.208 267.131 306.972 268.274L315.8 281.657C316.291 282.403 316.553 283.278 316.553 284.187ZM317.634 147.73C318.387 146.576 318.791 145.224 318.791 143.813V124.962L325 118.34V54.9092L318.791 48.2874V27.6644C318.791 25.8574 318.136 24.1554 316.935 22.873L303.589 8.61526C302.41 7.34454 300.762 6.62174 299.093 6.62174H223.531L217.332 0H107.297L101.087 6.62174H25.9075C24.2378 6.62174 22.6008 7.34454 21.4222 8.61526L8.06471 22.873C6.86427 24.1554 6.2095 25.8574 6.2095 27.6644V48.2874L0 54.9092V118.34L6.2095 124.962V143.813C6.2095 145.224 6.60236 146.576 7.36627 147.73L12.6263 155.693V272.319L7.36627 280.27C6.60236 281.424 6.2095 282.776 6.2095 284.187V301.942L0 308.564V371.995L6.2095 378.617V400.324C6.2095 402.143 6.86427 403.845 8.06471 405.127L21.4222 419.385C22.6008 420.655 24.2378 421.378 25.9075 421.378H101.087L107.297 428H217.332L223.531 421.378H299.093C300.762 421.378 302.399 420.655 303.589 419.385L316.935 405.127C318.136 403.845 318.791 402.143 318.791 400.324V378.617L325 371.995V308.564L318.791 301.942V284.187C318.791 282.776 318.387 281.424 317.634 280.27L312.494 272.494V155.506L317.634 147.73Z" fill="#FD8D26"/>
<mask id="mask0_135_3209" style="mask-type:alpha" maskUnits="userSpaceOnUse" x="9" y="10" width="308" height="408">
<path d="M299.545 418H26.4548C25.3747 418 24.3165 417.536 23.5529 416.724L10.2109 402.534C9.42546 401.71 9 400.62 9 399.436V283.853C9 282.948 9.26182 282.077 9.75274 281.335L18.5783 268.015C19.3419 266.878 19.7456 265.532 19.7456 264.128V163.872C19.7456 162.468 19.3419 161.122 18.5783 159.985L9.75274 146.665C9.26182 145.934 9 145.052 9 144.147V28.5523C9 27.3921 9.42546 26.2898 10.2109 25.4661L23.5529 11.2763C24.3165 10.4641 25.3747 10 26.4548 10H299.545C300.625 10 301.683 10.4641 302.447 11.2763L315.789 25.4661C316.564 26.2898 317 27.3921 317 28.5523V144.147C317 145.052 316.738 145.934 316.247 146.665L307.422 159.985C306.658 161.122 306.254 162.468 306.254 163.872V264.128C306.254 265.532 306.658 266.878 307.422 268.015L316.247 281.335C316.738 282.077 317 282.948 317 283.853V399.436C317 400.62 316.564 401.71 315.789 402.534L302.447 416.724C301.683 417.536 300.625 418 299.545 418Z" fill="#023340"/>
</mask>
<g mask="url(#mask0_135_3209)">
<path d="M299.387 422H25.6241C24.2353 422 22.901 421.412 21.9168 420.353L8.54199 405.958C7.55774 404.899 7 403.476 7 401.971V284.807C7 283.643 7.33902 282.502 7.96237 281.561L16.8206 268.06C17.4439 267.107 17.772 265.978 17.772 264.814V163.186C17.772 162.022 17.4439 160.893 16.8206 159.94L7.96237 146.439C7.33902 145.498 7 144.357 7 143.193V26.0173C7 24.5236 7.55774 23.1006 8.54199 22.0421L21.9168 7.64655C22.901 6.58805 24.2353 6 25.6241 6H299.387C300.776 6 302.11 6.58805 303.094 7.64655L316.469 22.0421C317.453 23.1006 318 24.5236 318 26.0173V143.193C318 144.357 317.672 145.498 317.049 146.439L308.19 159.94C307.567 160.893 307.239 162.022 307.239 163.186V264.814C307.239 265.978 307.567 267.107 308.19 268.06L317.049 281.561C317.672 282.502 318 283.643 318 284.807V401.971C318 403.476 317.453 404.899 316.469 405.958L303.094 420.353C302.11 421.412 300.776 422 299.387 422ZM25.6241 7.21139C24.5415 7.21139 23.4807 7.68183 22.7151 8.5051L9.34032 22.8889C8.55292 23.7239 8.12642 24.8412 8.12642 26.0173V143.193C8.12642 144.11 8.38888 145.004 8.881 145.745L17.7283 159.246C18.4938 160.399 18.8984 161.763 18.8984 163.186V264.814C18.8984 266.237 18.4938 267.601 17.7283 268.754L8.881 282.255C8.38888 283.008 8.12642 283.89 8.12642 284.807V401.971C8.12642 403.171 8.55292 404.276 9.34032 405.111L22.7151 419.495C23.4807 420.318 24.5415 420.789 25.6241 420.789H299.387C300.469 420.789 301.53 420.318 302.296 419.495L315.671 405.111C316.447 404.276 316.885 403.171 316.885 401.971V284.807C316.885 283.89 316.622 283.008 316.13 282.255L307.283 268.754C306.517 267.601 306.112 266.237 306.112 264.814V163.186C306.112 161.763 306.517 160.399 307.283 159.246L316.13 145.745C316.622 145.004 316.885 144.11 316.885 143.193V26.0173C316.885 24.8412 316.447 23.7239 315.671 22.8889L302.296 8.5051C301.53 7.68183 300.469 7.21139 299.387 7.21139H25.6241Z" fill="#FD8D26"/>
<path d="M299.545 418H26.4548C25.3747 418 24.3165 417.536 23.5529 416.724L10.2109 402.534C9.42546 401.71 9 400.62 9 399.436V283.853C9 282.948 9.26182 282.077 9.75274 281.335L18.5783 268.015C19.3419 266.878 19.7456 265.532 19.7456 264.128V163.872C19.7456 162.468 19.3419 161.122 18.5783 159.985L9.75274 146.665C9.26182 145.934 9 145.052 9 144.147V28.5523C9 27.3921 9.42546 26.2898 10.2109 25.4661L23.5529 11.2763C24.3165 10.4641 25.3747 10 26.4548 10H299.545C300.625 10 301.683 10.4641 302.447 11.2763L315.789 25.4661C316.564 26.2898 317 27.3921 317 28.5523V144.147C317 145.052 316.738 145.934 316.247 146.665L307.422 159.985C306.658 161.122 306.254 162.468 306.254 163.872V264.128C306.254 265.532 306.658 266.878 307.422 268.015L316.247 281.335C316.738 282.077 317 282.948 317 283.853V399.436C317 400.62 316.564 401.71 315.789 402.534L302.447 416.724C301.683 417.536 300.625 418 299.545 418Z" fill="#1F0F00" fill-opacity="0.6"/>
<g filter="url(#filter0_d_135_3209)">
<path d="M143.062 271H182.938" stroke="white" stroke-width="3" stroke-linecap="round" stroke-linejoin="round"/>
</g>
<g filter="url(#filter1_d_135_3209)">
<path d="M163 251.062V290.938" stroke="white" stroke-width="3" stroke-linecap="round" stroke-linejoin="round"/>
</g>
<path d="M55.1572 174.36C53.2372 174.36 51.7852 173.82 50.8012 172.74C49.8172 171.636 49.3252 170.064 49.3252 168.024V166.584H53.0692V168.312C53.0692 169.944 53.7532 170.76 55.1212 170.76C55.7932 170.76 56.2972 170.568 56.6332 170.184C56.9932 169.776 57.1732 169.128 57.1732 168.24C57.1732 167.184 56.9332 166.26 56.4532 165.468C55.9732 164.652 55.0852 163.68 53.7892 162.552C52.1572 161.112 51.0172 159.816 50.3692 158.664C49.7212 157.488 49.3972 156.168 49.3972 154.704C49.3972 152.712 49.9012 151.176 50.9092 150.096C51.9172 148.992 53.3812 148.44 55.3012 148.44C57.1972 148.44 58.6252 148.992 59.5852 150.096C60.5692 151.176 61.0612 152.736 61.0612 154.776V155.82H57.3172V154.524C57.3172 153.66 57.1492 153.036 56.8132 152.652C56.4772 152.244 55.9852 152.04 55.3372 152.04C54.0172 152.04 53.3572 152.844 53.3572 154.452C53.3572 155.364 53.5972 156.216 54.0772 157.008C54.5812 157.8 55.4812 158.76 56.7772 159.888C58.4332 161.328 59.5732 162.636 60.1972 163.812C60.8212 164.988 61.1332 166.368 61.1332 167.952C61.1332 170.016 60.6172 171.6 59.5852 172.704C58.5772 173.808 57.1012 174.36 55.1572 174.36ZM63.4037 148.8H74.2037V152.4H67.3637V159.06H72.7997V162.66H67.3637V170.4H74.2037V174H63.4037V148.8ZM76.4819 148.8H80.4419V170.4H86.9579V174H76.4819V148.8ZM88.8569 148.8H99.6569V152.4H92.8169V159.06H98.2529V162.66H92.8169V170.4H99.6569V174H88.8569V148.8ZM107.515 174.36C105.619 174.36 104.167 173.82 103.159 172.74C102.175 171.66 101.683 170.136 101.683 168.168V154.632C101.683 152.664 102.175 151.14 103.159 150.06C104.167 148.98 105.619 148.44 107.515 148.44C109.411 148.44 110.851 148.98 111.835 150.06C112.843 151.14 113.347 152.664 113.347 154.632V157.296H109.603V154.38C109.603 152.82 108.943 152.04 107.623 152.04C106.303 152.04 105.643 152.82 105.643 154.38V168.456C105.643 169.992 106.303 170.76 107.623 170.76C108.943 170.76 109.603 169.992 109.603 168.456V164.604H113.347V168.168C113.347 170.136 112.843 171.66 111.835 172.74C110.851 173.82 109.411 174.36 107.515 174.36ZM118.812 152.4H114.672V148.8H126.912V152.4H122.772V174H118.812V152.4ZM134.595 148.8H145.395V152.4H138.555V159.06H143.991V162.66H138.555V170.4H145.395V174H134.595V148.8ZM147.673 148.8H152.641L156.493 163.884H156.565V148.8H160.093V174H156.025L151.273 155.604H151.201V174H147.673V148.8ZM166.133 152.4H161.993V148.8H174.233V152.4H170.093V174H166.133V152.4ZM176.15 148.8H180.11V174H176.15V148.8ZM186.172 152.4H182.032V148.8H194.272V152.4H190.132V174H186.172V152.4ZM199.966 163.272L195.178 148.8H199.39L202.09 158.052H202.162L204.862 148.8H208.714L203.926 163.272V174H199.966V163.272ZM216.263 148.8H226.739V152.4H220.223V159.42H225.335V163.02H220.223V174H216.263V148.8ZM228.638 148.8H234.506C236.546 148.8 238.034 149.28 238.97 150.24C239.906 151.176 240.374 152.628 240.374 154.596V156.144C240.374 158.76 239.51 160.416 237.782 161.112V161.184C238.742 161.472 239.414 162.06 239.798 162.948C240.206 163.836 240.41 165.024 240.41 166.512V170.94C240.41 171.66 240.434 172.248 240.482 172.704C240.53 173.136 240.65 173.568 240.842 174H236.81C236.666 173.592 236.57 173.208 236.522 172.848C236.474 172.488 236.45 171.84 236.45 170.904V166.296C236.45 165.144 236.258 164.34 235.874 163.884C235.514 163.428 234.878 163.2 233.966 163.2H232.598V174H228.638V148.8ZM234.038 159.6C234.83 159.6 235.418 159.396 235.802 158.988C236.21 158.58 236.414 157.896 236.414 156.936V154.992C236.414 154.08 236.246 153.42 235.91 153.012C235.598 152.604 235.094 152.4 234.398 152.4H232.598V159.6H234.038ZM248.882 174.36C246.938 174.36 245.45 173.808 244.418 172.704C243.386 171.6 242.87 170.04 242.87 168.024V154.776C242.87 152.76 243.386 151.2 244.418 150.096C245.45 148.992 246.938 148.44 248.882 148.44C250.826 148.44 252.314 148.992 253.346 150.096C254.378 151.2 254.894 152.76 254.894 154.776V168.024C254.894 170.04 254.378 171.6 253.346 172.704C252.314 173.808 250.826 174.36 248.882 174.36ZM248.882 170.76C250.25 170.76 250.934 169.932 250.934 168.276V154.524C250.934 152.868 250.25 152.04 248.882 152.04C247.514 152.04 246.83 152.868 246.83 154.524V168.276C246.83 169.932 247.514 170.76 248.882 170.76ZM257.572 148.8H263.224L265.744 166.836H265.816L268.336 148.8H273.988V174H270.244V154.92H270.172L267.292 174H263.98L261.1 154.92H261.028V174H257.572V148.8ZM66.7458 195.4H62.6058V191.8H74.8458V195.4H70.7058V217H66.7458V195.4ZM76.7631 191.8H80.7231V202.06H84.9711V191.8H88.9311V217H84.9711V205.66H80.7231V217H76.7631V191.8ZM91.8803 191.8H102.68V195.4H95.8403V202.06H101.276V205.66H95.8403V213.4H102.68V217H91.8803V191.8ZM110.724 191.8H121.2V195.4H114.684V202.42H119.796V206.02H114.684V217H110.724V191.8ZM128.823 217.36C126.879 217.36 125.391 216.808 124.359 215.704C123.327 214.6 122.811 213.04 122.811 211.024V197.776C122.811 195.76 123.327 194.2 124.359 193.096C125.391 191.992 126.879 191.44 128.823 191.44C130.767 191.44 132.255 191.992 133.287 193.096C134.319 194.2 134.835 195.76 134.835 197.776V211.024C134.835 213.04 134.319 214.6 133.287 215.704C132.255 216.808 130.767 217.36 128.823 217.36ZM128.823 213.76C130.191 213.76 130.875 212.932 130.875 211.276V197.524C130.875 195.868 130.191 195.04 128.823 195.04C127.455 195.04 126.771 195.868 126.771 197.524V211.276C126.771 212.932 127.455 213.76 128.823 213.76ZM137.513 191.8H143.381C145.421 191.8 146.909 192.28 147.845 193.24C148.781 194.176 149.249 195.628 149.249 197.596V199.144C149.249 201.76 148.385 203.416 146.657 204.112V204.184C147.617 204.472 148.289 205.06 148.673 205.948C149.081 206.836 149.285 208.024 149.285 209.512V213.94C149.285 214.66 149.309 215.248 149.357 215.704C149.405 216.136 149.525 216.568 149.717 217H145.685C145.541 216.592 145.445 216.208 145.397 215.848C145.349 215.488 145.325 214.84 145.325 213.904V209.296C145.325 208.144 145.133 207.34 144.749 206.884C144.389 206.428 143.753 206.2 142.841 206.2H141.473V217H137.513V191.8ZM142.913 202.6C143.705 202.6 144.293 202.396 144.677 201.988C145.085 201.58 145.289 200.896 145.289 199.936V197.992C145.289 197.08 145.121 196.42 144.785 196.012C144.473 195.604 143.969 195.4 143.273 195.4H141.473V202.6H142.913ZM157.649 217.36C155.729 217.36 154.265 216.82 153.257 215.74C152.249 214.636 151.745 213.064 151.745 211.024V197.776C151.745 195.736 152.249 194.176 153.257 193.096C154.265 191.992 155.729 191.44 157.649 191.44C159.569 191.44 161.033 191.992 162.041 193.096C163.049 194.176 163.553 195.736 163.553 197.776V199.936H159.809V197.524C159.809 195.868 159.125 195.04 157.757 195.04C156.389 195.04 155.705 195.868 155.705 197.524V211.312C155.705 212.944 156.389 213.76 157.757 213.76C159.125 213.76 159.809 212.944 159.809 211.312V206.38H157.829V202.78H163.553V211.024C163.553 213.064 163.049 214.636 162.041 215.74C161.033 216.82 159.569 217.36 157.649 217.36ZM166.095 191.8H170.055V217H166.095V191.8ZM173.021 191.8H177.989L181.841 206.884H181.913V191.8H185.441V217H181.373L176.621 198.604H176.549V217H173.021V191.8ZM194 217.36C192.08 217.36 190.616 216.82 189.608 215.74C188.6 214.636 188.096 213.064 188.096 211.024V197.776C188.096 195.736 188.6 194.176 189.608 193.096C190.616 191.992 192.08 191.44 194 191.44C195.92 191.44 197.384 191.992 198.392 193.096C199.4 194.176 199.904 195.736 199.904 197.776V199.936H196.16V197.524C196.16 195.868 195.476 195.04 194.108 195.04C192.74 195.04 192.056 195.868 192.056 197.524V211.312C192.056 212.944 192.74 213.76 194.108 213.76C195.476 213.76 196.16 212.944 196.16 211.312V206.38H194.18V202.78H199.904V211.024C199.904 213.064 199.4 214.636 198.392 215.74C197.384 216.82 195.92 217.36 194 217.36ZM208.212 191.8H214.044C216.012 191.8 217.488 192.328 218.472 193.384C219.456 194.44 219.948 195.988 219.948 198.028V200.512C219.948 202.552 219.456 204.1 218.472 205.156C217.488 206.212 216.012 206.74 214.044 206.74H212.172V217H208.212V191.8ZM214.044 203.14C214.692 203.14 215.172 202.96 215.484 202.6C215.82 202.24 215.988 201.628 215.988 200.764V197.776C215.988 196.912 215.82 196.3 215.484 195.94C215.172 195.58 214.692 195.4 214.044 195.4H212.172V203.14H214.044ZM227.823 217.36C225.879 217.36 224.391 216.808 223.359 215.704C222.327 214.6 221.811 213.04 221.811 211.024V197.776C221.811 195.76 222.327 194.2 223.359 193.096C224.391 191.992 225.879 191.44 227.823 191.44C229.767 191.44 231.255 191.992 232.287 193.096C233.319 194.2 233.835 195.76 233.835 197.776V211.024C233.835 213.04 233.319 214.6 232.287 215.704C231.255 216.808 229.767 217.36 227.823 217.36ZM227.823 213.76C229.191 213.76 229.875 212.932 229.875 211.276V197.524C229.875 195.868 229.191 195.04 227.823 195.04C226.455 195.04 225.771 195.868 225.771 197.524V211.276C225.771 212.932 226.455 213.76 227.823 213.76ZM242.237 217.36C240.293 217.36 238.805 216.808 237.773 215.704C236.741 214.6 236.225 213.04 236.225 211.024V197.776C236.225 195.76 236.741 194.2 237.773 193.096C238.805 191.992 240.293 191.44 242.237 191.44C244.181 191.44 245.669 191.992 246.701 193.096C247.733 194.2 248.249 195.76 248.249 197.776V211.024C248.249 213.04 247.733 214.6 246.701 215.704C245.669 216.808 244.181 217.36 242.237 217.36ZM242.237 213.76C243.605 213.76 244.289 212.932 244.289 211.276V197.524C244.289 195.868 243.605 195.04 242.237 195.04C240.869 195.04 240.185 195.868 240.185 197.524V211.276C240.185 212.932 240.869 213.76 242.237 213.76ZM250.927 191.8H254.887V213.4H261.403V217H250.927V191.8Z" fill="white"/>
</g>
<defs>
<filter id="filter0_d_135_3209" x="119.263" y="247.2" width="87.475" height="47.6" filterUnits="userSpaceOnUse" color-interpolation-filters="sRGB">
<feFlood flood-opacity="0" result="BackgroundImageFix"/>
<feColorMatrix in="SourceAlpha" type="matrix" values="0 0 0 0 0 0 0 0 0 0 0 0 0 0 0 0 0 0 127 0" result="hardAlpha"/>
<feOffset/>
<feGaussianBlur stdDeviation="11.15"/>
<feComposite in2="hardAlpha" operator="out"/>
<feColorMatrix type="matrix" values="0 0 0 0 1 0 0 0 0 1 0 0 0 0 1 0 0 0 0.62 0"/>
<feBlend mode="normal" in2="BackgroundImageFix" result="effect1_dropShadow_135_3209"/>
<feBlend mode="normal" in="SourceGraphic" in2="effect1_dropShadow_135_3209" result="shape"/>
</filter>
<filter id="filter1_d_135_3209" x="139.2" y="227.263" width="47.6" height="87.475" filterUnits="userSpaceOnUse" color-interpolation-filters="sRGB">
<feFlood flood-opacity="0" result="BackgroundImageFix"/>
<feColorMatrix in="SourceAlpha" type="matrix" values="0 0 0 0 0 0 0 0 0 0 0 0 0 0 0 0 0 0 127 0" result="hardAlpha"/>
<feOffset/>
<feGaussianBlur stdDeviation="11.15"/>
<feComposite in2="hardAlpha" operator="out"/>
<feColorMatrix type="matrix" values="0 0 0 0 1 0 0 0 0 1 0 0 0 0 1 0 0 0 0.62 0"/>
<feBlend mode="normal" in2="BackgroundImageFix" result="effect1_dropShadow_135_3209"/>
<feBlend mode="normal" in="SourceGraphic" in2="effect1_dropShadow_135_3209" result="shape"/>
</filter>
</defs>
</svg>
