<svg width="325" height="428" viewBox="0 0 325 428" fill="none" xmlns="http://www.w3.org/2000/svg">
<path d="M316.553 284.187V400.324C316.553 401.513 316.117 402.609 315.342 403.437L301.995 417.694C301.232 418.51 300.173 418.977 299.093 418.977H25.9075C24.8271 418.977 23.7685 418.51 23.0046 417.694L9.658 403.437C8.87227 402.609 8.44666 401.513 8.44666 400.324V284.187C8.44666 283.278 8.70857 282.403 9.19966 281.657L18.0283 268.274C18.7922 267.131 19.196 265.779 19.196 264.368V163.632C19.196 162.221 18.7922 160.869 18.0283 159.726L9.19966 146.343C8.70857 145.608 8.44666 144.722 8.44666 143.813V27.6644C8.44666 26.4986 8.87227 25.3911 9.658 24.5634L23.0046 10.3057C23.7685 9.48961 24.8271 9.02329 25.9075 9.02329H299.093C300.173 9.02329 301.232 9.48961 301.995 10.3057L315.342 24.5634C316.117 25.3911 316.553 26.4986 316.553 27.6644V143.813C316.553 144.722 316.291 145.608 315.8 146.343L306.972 159.726C306.208 160.869 305.804 162.221 305.804 163.632V264.368C305.804 265.779 306.208 267.131 306.972 268.274L315.8 281.657C316.291 282.403 316.553 283.278 316.553 284.187ZM317.634 147.73C318.387 146.576 318.791 145.224 318.791 143.813V124.962L325 118.34V54.9092L318.791 48.2874V27.6644C318.791 25.8574 318.136 24.1554 316.935 22.873L303.589 8.61526C302.41 7.34454 300.762 6.62174 299.093 6.62174H223.531L217.332 0H107.297L101.087 6.62174H25.9075C24.2378 6.62174 22.6008 7.34454 21.4222 8.61526L8.06471 22.873C6.86427 24.1554 6.2095 25.8574 6.2095 27.6644V48.2874L0 54.9092V118.34L6.2095 124.962V143.813C6.2095 145.224 6.60236 146.576 7.36627 147.73L12.6263 155.693V272.319L7.36627 280.27C6.60236 281.424 6.2095 282.776 6.2095 284.187V301.942L0 308.564V371.995L6.2095 378.617V400.324C6.2095 402.143 6.86427 403.845 8.06471 405.127L21.4222 419.385C22.6008 420.655 24.2378 421.378 25.9075 421.378H101.087L107.297 428H217.332L223.531 421.378H299.093C300.762 421.378 302.399 420.655 303.589 419.385L316.935 405.127C318.136 403.845 318.791 402.143 318.791 400.324V378.617L325 371.995V308.564L318.791 301.942V284.187C318.791 282.776 318.387 281.424 317.634 280.27L312.494 272.494V155.506L317.634 147.73Z" fill="#FD8D26"/>
<mask id="mask0_135_3216" style="mask-type:alpha" maskUnits="userSpaceOnUse" x="9" y="10" width="308" height="408">
<path d="M299.545 418H26.4548C25.3747 418 24.3165 417.536 23.5529 416.724L10.2109 402.534C9.42546 401.71 9 400.62 9 399.436V283.853C9 282.948 9.26182 282.077 9.75274 281.335L18.5783 268.015C19.3419 266.878 19.7456 265.532 19.7456 264.128V163.872C19.7456 162.468 19.3419 161.122 18.5783 159.985L9.75274 146.665C9.26182 145.934 9 145.052 9 144.147V28.5523C9 27.3921 9.42546 26.2898 10.2109 25.4661L23.5529 11.2763C24.3165 10.4641 25.3747 10 26.4548 10H299.545C300.625 10 301.683 10.4641 302.447 11.2763L315.789 25.4661C316.564 26.2898 317 27.3921 317 28.5523V144.147C317 145.052 316.738 145.934 316.247 146.665L307.422 159.985C306.658 161.122 306.254 162.468 306.254 163.872V264.128C306.254 265.532 306.658 266.878 307.422 268.015L316.247 281.335C316.738 282.077 317 282.948 317 283.853V399.436C317 400.62 316.564 401.71 315.789 402.534L302.447 416.724C301.683 417.536 300.625 418 299.545 418Z" fill="#023340"/>
</mask>
<g mask="url(#mask0_135_3216)">
<path d="M299.387 422H25.6241C24.2353 422 22.901 421.412 21.9168 420.353L8.54199 405.958C7.55774 404.899 7 403.476 7 401.971V284.807C7 283.643 7.33902 282.502 7.96237 281.561L16.8206 268.06C17.4439 267.107 17.772 265.978 17.772 264.814V163.186C17.772 162.022 17.4439 160.893 16.8206 159.94L7.96237 146.439C7.33902 145.498 7 144.357 7 143.193V26.0173C7 24.5236 7.55774 23.1006 8.54199 22.0421L21.9168 7.64655C22.901 6.58805 24.2353 6 25.6241 6H299.387C300.776 6 302.11 6.58805 303.094 7.64655L316.469 22.0421C317.453 23.1006 318 24.5236 318 26.0173V143.193C318 144.357 317.672 145.498 317.049 146.439L308.19 159.94C307.567 160.893 307.239 162.022 307.239 163.186V264.814C307.239 265.978 307.567 267.107 308.19 268.06L317.049 281.561C317.672 282.502 318 283.643 318 284.807V401.971C318 403.476 317.453 404.899 316.469 405.958L303.094 420.353C302.11 421.412 300.776 422 299.387 422ZM25.6241 7.21139C24.5415 7.21139 23.4807 7.68183 22.7151 8.5051L9.34032 22.8889C8.55292 23.7239 8.12642 24.8412 8.12642 26.0173V143.193C8.12642 144.11 8.38888 145.004 8.881 145.745L17.7283 159.246C18.4938 160.399 18.8984 161.763 18.8984 163.186V264.814C18.8984 266.237 18.4938 267.601 17.7283 268.754L8.881 282.255C8.38888 283.008 8.12642 283.89 8.12642 284.807V401.971C8.12642 403.171 8.55292 404.276 9.34032 405.111L22.7151 419.495C23.4807 420.318 24.5415 420.789 25.6241 420.789H299.387C300.469 420.789 301.53 420.318 302.296 419.495L315.671 405.111C316.447 404.276 316.885 403.171 316.885 401.971V284.807C316.885 283.89 316.622 283.008 316.13 282.255L307.283 268.754C306.517 267.601 306.112 266.237 306.112 264.814V163.186C306.112 161.763 306.517 160.399 307.283 159.246L316.13 145.745C316.622 145.004 316.885 144.11 316.885 143.193V26.0173C316.885 24.8412 316.447 23.7239 315.671 22.8889L302.296 8.5051C301.53 7.68183 300.469 7.21139 299.387 7.21139H25.6241Z" fill="#FD8D26"/>
<path d="M299.545 418H26.4548C25.3747 418 24.3165 417.536 23.5529 416.724L10.2109 402.534C9.42546 401.71 9 400.62 9 399.436V283.853C9 282.948 9.26182 282.077 9.75274 281.335L18.5783 268.015C19.3419 266.878 19.7456 265.532 19.7456 264.128V163.872C19.7456 162.468 19.3419 161.122 18.5783 159.985L9.75274 146.665C9.26182 145.934 9 145.052 9 144.147V28.5523C9 27.3921 9.42546 26.2898 10.2109 25.4661L23.5529 11.2763C24.3165 10.4641 25.3747 10 26.4548 10H299.545C300.625 10 301.683 10.4641 302.447 11.2763L315.789 25.4661C316.564 26.2898 317 27.3921 317 28.5523V144.147C317 145.052 316.738 145.934 316.247 146.665L307.422 159.985C306.658 161.122 306.254 162.468 306.254 163.872V264.128C306.254 265.532 306.658 266.878 307.422 268.015L316.247 281.335C316.738 282.077 317 282.948 317 283.853V399.436C317 400.62 316.564 401.71 315.789 402.534L302.447 416.724C301.683 417.536 300.625 418 299.545 418Z" fill="#1F0F00" fill-opacity="0.6"/>
<g filter="url(#filter0_d_135_3216)">
<path d="M143.062 271H182.938" stroke="white" stroke-width="3" stroke-linecap="round" stroke-linejoin="round"/>
</g>
<g filter="url(#filter1_d_135_3216)">
<path d="M163 251.062V290.938" stroke="white" stroke-width="3" stroke-linecap="round" stroke-linejoin="round"/>
</g>
<path d="M55.1572 174.36C53.2372 174.36 51.7852 173.82 50.8012 172.74C49.8172 171.636 49.3252 170.064 49.3252 168.024V166.584H53.0692V168.312C53.0692 169.944 53.7532 170.76 55.1212 170.76C55.7932 170.76 56.2972 170.568 56.6332 170.184C56.9932 169.776 57.1732 169.128 57.1732 168.24C57.1732 167.184 56.9332 166.26 56.4532 165.468C55.9732 164.652 55.0852 163.68 53.7892 162.552C52.1572 161.112 51.0172 159.816 50.3692 158.664C49.7212 157.488 49.3972 156.168 49.3972 154.704C49.3972 152.712 49.9012 151.176 50.9092 150.096C51.9172 148.992 53.3812 148.44 55.3012 148.44C57.1972 148.44 58.6252 148.992 59.5852 150.096C60.5692 151.176 61.0612 152.736 61.0612 154.776V155.82H57.3172V154.524C57.3172 153.66 57.1492 153.036 56.8132 152.652C56.4772 152.244 55.9852 152.04 55.3372 152.04C54.0172 152.04 53.3572 152.844 53.3572 154.452C53.3572 155.364 53.5972 156.216 54.0772 157.008C54.5812 157.8 55.4812 158.76 56.7772 159.888C58.4332 161.328 59.5732 162.636 60.1972 163.812C60.8212 164.988 61.1332 166.368 61.1332 167.952C61.1332 170.016 60.6172 171.6 59.5852 172.704C58.5772 173.808 57.1012 174.36 55.1572 174.36ZM63.4037 148.8H74.2037V152.4H67.3637V159.06H72.7997V162.66H67.3637V170.4H74.2037V174H63.4037V148.8ZM76.4819 148.8H80.4419V170.4H86.9579V174H76.4819V148.8ZM88.8569 148.8H99.6569V152.4H92.8169V159.06H98.2529V162.66H92.8169V170.4H99.6569V174H88.8569V148.8ZM107.515 174.36C105.619 174.36 104.167 173.82 103.159 172.74C102.175 171.66 101.683 170.136 101.683 168.168V154.632C101.683 152.664 102.175 151.14 103.159 150.06C104.167 148.98 105.619 148.44 107.515 148.44C109.411 148.44 110.851 148.98 111.835 150.06C112.843 151.14 113.347 152.664 113.347 154.632V157.296H109.603V154.38C109.603 152.82 108.943 152.04 107.623 152.04C106.303 152.04 105.643 152.82 105.643 154.38V168.456C105.643 169.992 106.303 170.76 107.623 170.76C108.943 170.76 109.603 169.992 109.603 168.456V164.604H113.347V168.168C113.347 170.136 112.843 171.66 111.835 172.74C110.851 173.82 109.411 174.36 107.515 174.36ZM118.812 152.4H114.672V148.8H126.912V152.4H122.772V174H118.812V152.4ZM134.595 148.8H145.395V152.4H138.555V159.06H143.991V162.66H138.555V170.4H145.395V174H134.595V148.8ZM147.673 148.8H152.641L156.493 163.884H156.565V148.8H160.093V174H156.025L151.273 155.604H151.201V174H147.673V148.8ZM166.133 152.4H161.993V148.8H174.233V152.4H170.093V174H166.133V152.4ZM176.15 148.8H180.11V174H176.15V148.8ZM186.172 152.4H182.032V148.8H194.272V152.4H190.132V174H186.172V152.4ZM199.966 163.272L195.178 148.8H199.39L202.09 158.052H202.162L204.862 148.8H208.714L203.926 163.272V174H199.966V163.272ZM216.263 148.8H226.739V152.4H220.223V159.42H225.335V163.02H220.223V174H216.263V148.8ZM228.638 148.8H234.506C236.546 148.8 238.034 149.28 238.97 150.24C239.906 151.176 240.374 152.628 240.374 154.596V156.144C240.374 158.76 239.51 160.416 237.782 161.112V161.184C238.742 161.472 239.414 162.06 239.798 162.948C240.206 163.836 240.41 165.024 240.41 166.512V170.94C240.41 171.66 240.434 172.248 240.482 172.704C240.53 173.136 240.65 173.568 240.842 174H236.81C236.666 173.592 236.57 173.208 236.522 172.848C236.474 172.488 236.45 171.84 236.45 170.904V166.296C236.45 165.144 236.258 164.34 235.874 163.884C235.514 163.428 234.878 163.2 233.966 163.2H232.598V174H228.638V148.8ZM234.038 159.6C234.83 159.6 235.418 159.396 235.802 158.988C236.21 158.58 236.414 157.896 236.414 156.936V154.992C236.414 154.08 236.246 153.42 235.91 153.012C235.598 152.604 235.094 152.4 234.398 152.4H232.598V159.6H234.038ZM248.882 174.36C246.938 174.36 245.45 173.808 244.418 172.704C243.386 171.6 242.87 170.04 242.87 168.024V154.776C242.87 152.76 243.386 151.2 244.418 150.096C245.45 148.992 246.938 148.44 248.882 148.44C250.826 148.44 252.314 148.992 253.346 150.096C254.378 151.2 254.894 152.76 254.894 154.776V168.024C254.894 170.04 254.378 171.6 253.346 172.704C252.314 173.808 250.826 174.36 248.882 174.36ZM248.882 170.76C250.25 170.76 250.934 169.932 250.934 168.276V154.524C250.934 152.868 250.25 152.04 248.882 152.04C247.514 152.04 246.83 152.868 246.83 154.524V168.276C246.83 169.932 247.514 170.76 248.882 170.76ZM257.572 148.8H263.224L265.744 166.836H265.816L268.336 148.8H273.988V174H270.244V154.92H270.172L267.292 174H263.98L261.1 154.92H261.028V174H257.572V148.8ZM93.2839 206.272L88.4959 191.8H92.7079L95.4079 201.052H95.4799L98.1799 191.8H102.032L97.2439 206.272V217H93.2839V206.272ZM108.907 217.36C106.963 217.36 105.475 216.808 104.443 215.704C103.411 214.6 102.895 213.04 102.895 211.024V197.776C102.895 195.76 103.411 194.2 104.443 193.096C105.475 191.992 106.963 191.44 108.907 191.44C110.851 191.44 112.339 191.992 113.371 193.096C114.403 194.2 114.919 195.76 114.919 197.776V211.024C114.919 213.04 114.403 214.6 113.371 215.704C112.339 216.808 110.851 217.36 108.907 217.36ZM108.907 213.76C110.275 213.76 110.959 212.932 110.959 211.276V197.524C110.959 195.868 110.275 195.04 108.907 195.04C107.539 195.04 106.855 195.868 106.855 197.524V211.276C106.855 212.932 107.539 213.76 108.907 213.76ZM123.357 217.36C121.437 217.36 119.973 216.82 118.965 215.74C117.957 214.636 117.453 213.064 117.453 211.024V191.8H121.413V211.312C121.413 212.176 121.581 212.8 121.917 213.184C122.277 213.568 122.781 213.76 123.429 213.76C124.077 213.76 124.569 213.568 124.905 213.184C125.265 212.8 125.445 212.176 125.445 211.312V191.8H129.261V211.024C129.261 213.064 128.757 214.636 127.749 215.74C126.741 216.82 125.277 217.36 123.357 217.36ZM132.081 191.8H137.949C139.989 191.8 141.477 192.28 142.413 193.24C143.349 194.176 143.817 195.628 143.817 197.596V199.144C143.817 201.76 142.953 203.416 141.225 204.112V204.184C142.185 204.472 142.857 205.06 143.241 205.948C143.649 206.836 143.853 208.024 143.853 209.512V213.94C143.853 214.66 143.877 215.248 143.925 215.704C143.973 216.136 144.093 216.568 144.285 217H140.253C140.109 216.592 140.013 216.208 139.965 215.848C139.917 215.488 139.893 214.84 139.893 213.904V209.296C139.893 208.144 139.701 207.34 139.317 206.884C138.957 206.428 138.321 206.2 137.409 206.2H136.041V217H132.081V191.8ZM137.481 202.6C138.273 202.6 138.861 202.396 139.245 201.988C139.653 201.58 139.857 200.896 139.857 199.936V197.992C139.857 197.08 139.689 196.42 139.353 196.012C139.041 195.604 138.537 195.4 137.841 195.4H136.041V202.6H137.481ZM151.431 191.8H155.247L157.011 211.168H157.083L158.955 191.8H163.275L165.147 211.168H165.219L166.983 191.8H170.403L167.847 217H162.915L161.115 200.008H161.043L159.243 217H153.987L151.431 191.8ZM174.974 191.8H180.338L184.442 217H180.482L179.762 211.996V212.068H175.262L174.542 217H170.87L174.974 191.8ZM179.294 208.648L177.53 196.192H177.458L175.729 208.648H179.294ZM186.363 191.8H190.323V213.4H196.839V217H186.363V191.8ZM198.738 191.8H202.698V213.4H209.214V217H198.738V191.8ZM211.113 191.8H221.913V195.4H215.073V202.06H220.509V205.66H215.073V213.4H221.913V217H211.113V191.8ZM227.287 195.4H223.147V191.8H235.387V195.4H231.247V217H227.287V195.4Z" fill="white"/>
</g>
<defs>
<filter id="filter0_d_135_3216" x="119.263" y="247.2" width="87.475" height="47.6" filterUnits="userSpaceOnUse" color-interpolation-filters="sRGB">
<feFlood flood-opacity="0" result="BackgroundImageFix"/>
<feColorMatrix in="SourceAlpha" type="matrix" values="0 0 0 0 0 0 0 0 0 0 0 0 0 0 0 0 0 0 127 0" result="hardAlpha"/>
<feOffset/>
<feGaussianBlur stdDeviation="11.15"/>
<feComposite in2="hardAlpha" operator="out"/>
<feColorMatrix type="matrix" values="0 0 0 0 1 0 0 0 0 1 0 0 0 0 1 0 0 0 0.62 0"/>
<feBlend mode="normal" in2="BackgroundImageFix" result="effect1_dropShadow_135_3216"/>
<feBlend mode="normal" in="SourceGraphic" in2="effect1_dropShadow_135_3216" result="shape"/>
</filter>
<filter id="filter1_d_135_3216" x="139.2" y="227.263" width="47.6" height="87.475" filterUnits="userSpaceOnUse" color-interpolation-filters="sRGB">
<feFlood flood-opacity="0" result="BackgroundImageFix"/>
<feColorMatrix in="SourceAlpha" type="matrix" values="0 0 0 0 0 0 0 0 0 0 0 0 0 0 0 0 0 0 127 0" result="hardAlpha"/>
<feOffset/>
<feGaussianBlur stdDeviation="11.15"/>
<feComposite in2="hardAlpha" operator="out"/>
<feColorMatrix type="matrix" values="0 0 0 0 1 0 0 0 0 1 0 0 0 0 1 0 0 0 0.62 0"/>
<feBlend mode="normal" in2="BackgroundImageFix" result="effect1_dropShadow_135_3216"/>
<feBlend mode="normal" in="SourceGraphic" in2="effect1_dropShadow_135_3216" result="shape"/>
</filter>
</defs>
</svg>
