<svg width="232" height="348" viewBox="0 0 232 348" fill="none" xmlns="http://www.w3.org/2000/svg">
<path d="M225.97 231.068V325.497C225.97 326.464 225.659 327.355 225.106 328.028L215.578 339.621C215.033 340.284 214.277 340.663 213.506 340.663H18.4939C17.7227 340.663 16.9671 340.284 16.4217 339.621L6.89433 328.028C6.33343 327.355 6.02962 326.464 6.02962 325.497V231.068C6.02962 230.329 6.21658 229.618 6.56714 229.011L12.8694 218.129C13.4147 217.2 13.703 216.101 13.703 214.954V133.046C13.703 131.899 13.4147 130.8 12.8694 129.871L6.56714 118.989C6.21658 118.392 6.02962 117.671 6.02962 116.932V22.4935C6.02962 21.5456 6.33343 20.6451 6.89433 19.9721L16.4217 8.37938C16.9671 7.71585 17.7227 7.33669 18.4939 7.33669H213.506C214.277 7.33669 215.033 7.71585 215.578 8.37938L225.106 19.9721C225.659 20.6451 225.97 21.5456 225.97 22.4935V116.932C225.97 117.671 225.783 118.392 225.433 118.989L219.131 129.871C218.585 130.8 218.297 131.899 218.297 133.046V214.954C218.297 216.101 218.585 217.2 219.131 218.129L225.433 229.011C225.783 229.618 225.97 230.329 225.97 231.068ZM226.742 120.117C227.279 119.179 227.567 118.079 227.567 116.932V101.605L232 96.2206V44.6458L227.567 39.2617V22.4935C227.567 21.0243 227.1 19.6403 226.243 18.5977L216.716 7.00493C215.874 5.97173 214.698 5.38403 213.506 5.38403H159.567L155.142 0H76.5933L72.1606 5.38403H18.4939C17.302 5.38403 16.1335 5.97173 15.2922 7.00493L5.75696 18.5977C4.90004 19.6403 4.43262 21.0243 4.43262 22.4935V39.2617L0 44.6458V96.2206L4.43262 101.605V116.932C4.43262 118.079 4.71307 119.179 5.25839 120.117L9.01326 126.591V221.418L5.25839 227.883C4.71307 228.821 4.43262 229.921 4.43262 231.068V245.504L0 250.888V302.463L4.43262 307.847V325.497C4.43262 326.976 4.90004 328.36 5.75696 329.402L15.2922 340.995C16.1335 342.028 17.302 342.616 18.4939 342.616H72.1606L76.5933 348H155.142L159.567 342.616H213.506C214.698 342.616 215.866 342.028 216.716 340.995L226.243 329.402C227.1 328.36 227.567 326.976 227.567 325.497V307.847L232 302.463V250.888L227.567 245.504V231.068C227.567 229.921 227.279 228.821 226.742 227.883L223.072 221.561V126.439L226.742 120.117Z" fill="#0EEB81"/>
<mask id="mask0_210_8491" style="mask-type:alpha" maskUnits="userSpaceOnUse" x="7" y="8" width="219" height="332">
<path d="M213.589 340H19.411C18.6431 340 17.8907 339.622 17.3477 338.961L7.86101 327.415C7.30252 326.745 7 325.857 7 324.894V230.841C7 230.104 7.18616 229.396 7.53522 228.792L13.8105 217.954C14.3535 217.028 14.6405 215.933 14.6405 214.791V133.209C14.6405 132.067 14.3535 130.972 13.8105 130.046L7.53522 119.208C7.18616 118.613 7 117.896 7 117.159V23.0965C7 22.1524 7.30252 21.2555 7.86101 20.5851L17.3477 9.03853C17.8907 8.37765 18.6431 8 19.411 8H213.589C214.357 8 215.109 8.37765 215.652 9.03853L225.139 20.5851C225.69 21.2555 226 22.1524 226 23.0965V117.159C226 117.896 225.814 118.613 225.465 119.208L219.189 130.046C218.646 130.972 218.359 132.067 218.359 133.209V214.791C218.359 215.933 218.646 217.028 219.189 217.954L225.465 228.792C225.814 229.396 226 230.104 226 230.841V324.894C226 325.857 225.69 326.745 225.139 327.415L215.652 338.961C215.109 339.622 214.357 340 213.589 340Z" fill="#023340"/>
</mask>
<g mask="url(#mask0_210_8491)">
<path d="M213.713 343H18.2944C17.303 343 16.3506 342.522 15.648 341.662L6.10071 329.966C5.39813 329.106 5 327.95 5 326.726V231.531C5 230.585 5.242 229.658 5.68697 228.894L12.0102 217.923C12.4552 217.149 12.6894 216.232 12.6894 215.286V132.714C12.6894 131.768 12.4552 130.851 12.0102 130.077L5.68697 119.106C5.242 118.342 5 117.415 5 116.469V21.2641C5 20.0505 5.39813 18.8942 6.10071 18.0342L15.648 6.33782C16.3506 5.47779 17.303 5 18.2944 5H213.713C214.705 5 215.657 5.47779 216.36 6.33782L225.907 18.0342C226.61 18.8942 227 20.0505 227 21.2641V116.469C227 117.415 226.766 118.342 226.321 119.106L219.998 130.077C219.553 130.851 219.318 131.768 219.318 132.714V215.286C219.318 216.232 219.553 217.149 219.998 217.923L226.321 228.894C226.766 229.658 227 230.585 227 231.531V326.726C227 327.95 226.61 329.106 225.907 329.966L216.36 341.662C215.657 342.522 214.705 343 213.713 343ZM18.2944 5.98425C17.5216 5.98425 16.7643 6.36649 16.2179 7.0354L6.67058 18.7222C6.10852 19.4007 5.80406 20.3085 5.80406 21.2641V116.469C5.80406 117.214 5.99142 117.941 6.34271 118.543L12.6581 129.513C13.2046 130.449 13.4934 131.558 13.4934 132.714V215.286C13.4934 216.442 13.2046 217.551 12.6581 218.487L6.34271 229.457C5.99142 230.069 5.80406 230.786 5.80406 231.531V326.726C5.80406 327.701 6.10852 328.599 6.67058 329.278L16.2179 340.965C16.7643 341.634 17.5216 342.016 18.2944 342.016H213.713C214.486 342.016 215.243 341.634 215.79 340.965L225.337 329.278C225.891 328.599 226.204 327.701 226.204 326.726V231.531C226.204 230.786 226.016 230.069 225.665 229.457L219.35 218.487C218.803 217.551 218.514 216.442 218.514 215.286V132.714C218.514 131.558 218.803 130.449 219.35 129.513L225.665 118.543C226.016 117.941 226.204 117.214 226.204 116.469V21.2641C226.204 20.3085 225.891 19.4007 225.337 18.7222L215.79 7.0354C215.243 6.36649 214.486 5.98425 213.713 5.98425H18.2944Z" fill="#0EEB81"/>
<path d="M213.589 340H19.411C18.6431 340 17.8907 339.622 17.3477 338.961L7.86101 327.415C7.30252 326.745 7 325.857 7 324.894V230.841C7 230.104 7.18616 229.396 7.53522 228.792L13.8105 217.954C14.3535 217.028 14.6405 215.933 14.6405 214.791V133.209C14.6405 132.067 14.3535 130.972 13.8105 130.046L7.53522 119.208C7.18616 118.613 7 117.896 7 117.159V23.0965C7 22.1524 7.30252 21.2555 7.86101 20.5851L17.3477 9.03853C17.8907 8.37765 18.6431 8 19.411 8H213.589C214.357 8 215.109 8.37765 215.652 9.03853L225.139 20.5851C225.69 21.2555 226 22.1524 226 23.0965V117.159C226 117.896 225.814 118.613 225.465 119.208L219.189 130.046C218.646 130.972 218.359 132.067 218.359 133.209V214.791C218.359 215.933 218.646 217.028 219.189 217.954L225.465 228.792C225.814 229.396 226 230.104 226 230.841V324.894C226 325.857 225.69 326.745 225.139 327.415L215.652 338.961C215.109 339.622 214.357 340 213.589 340Z" fill="#081E0E" fill-opacity="0.8"/>
</g>
</svg>
