<svg width="325" height="183" viewBox="0 0 325 183" fill="none" xmlns="http://www.w3.org/2000/svg">
<path d="M300.437 121.51V171.167C300.437 171.675 300.046 172.144 299.352 172.497L287.402 178.594C286.718 178.943 285.77 179.142 284.803 179.142H40.1971C39.2298 179.142 38.282 178.943 37.598 178.594L25.6476 172.497C24.9441 172.144 24.563 171.675 24.563 171.167V121.51C24.563 121.121 24.7975 120.747 25.2372 120.428L33.1422 114.706C33.8262 114.217 34.1878 113.639 34.1878 113.036V69.964C34.1878 69.3609 33.8262 68.7826 33.1422 68.2941L25.2372 62.5718C24.7975 62.2578 24.563 61.879 24.563 61.4902V11.8285C24.563 11.33 24.9441 10.8565 25.6476 10.5026L37.598 4.4064C38.282 4.05747 39.2298 3.85809 40.1971 3.85809H284.803C285.77 3.85809 286.718 4.05747 287.402 4.4064L299.352 10.5026C300.046 10.8565 300.437 11.33 300.437 11.8285V61.4902C300.437 61.879 300.202 62.2578 299.763 62.5718L291.858 68.2941C291.174 68.7826 290.812 69.3609 290.812 69.964V113.036C290.812 113.639 291.174 114.217 291.858 114.706L299.763 120.428C300.202 120.747 300.437 121.121 300.437 121.51ZM301.404 63.165C302.079 62.6715 302.44 62.0933 302.44 61.4902V53.43L308 50.5988V23.4775L302.44 20.6463V11.8285C302.44 11.0559 301.854 10.3281 300.779 9.77981L288.829 3.68363C287.773 3.1403 286.298 2.83126 284.803 2.83126H217.146L211.596 0H113.072L107.512 2.83126H40.1971C38.7021 2.83126 37.2364 3.1403 36.1811 3.68363L24.221 9.77981C23.1462 10.3281 22.5599 11.0559 22.5599 11.8285V20.6463L17 23.4775V50.5988L22.5599 53.43V61.4902C22.5599 62.0933 22.9117 62.6715 23.5956 63.165L28.3054 66.5695V116.436L23.5956 119.835C22.9117 120.328 22.5599 120.907 22.5599 121.51V129.101L17 131.933V159.054L22.5599 161.885V171.167C22.5599 171.944 23.1462 172.672 24.221 173.22L36.1811 179.316C37.2364 179.86 38.7021 180.169 40.1971 180.169H107.512L113.072 183H211.596L217.146 180.169H284.803C286.298 180.169 287.764 179.86 288.829 179.316L300.779 173.22C301.854 172.672 302.44 171.944 302.44 171.167V161.885L308 159.054V131.933L302.44 129.101V121.51C302.44 120.907 302.079 120.328 301.404 119.835L296.802 116.51V66.4897L301.404 63.165Z" fill="#FD8D26"/>
<mask id="mask0_209_7650" style="mask-type:alpha" maskUnits="userSpaceOnUse" x="25" y="5" width="276" height="173">
<path d="M285.359 178H40.6413C39.6735 178 38.7252 177.803 38.0409 177.459L26.0851 171.442C25.3813 171.093 25 170.63 25 170.129V121.119C25 120.735 25.2346 120.366 25.6745 120.051L33.5831 114.403C34.2675 113.921 34.6292 113.351 34.6292 112.755V70.2446C34.6292 69.6493 34.2675 69.0786 33.5831 68.5965L25.6745 62.9487C25.2346 62.6388 25 62.2649 25 61.8812V12.8665C25 12.3746 25.3813 11.9072 26.0851 11.5579L38.0409 5.54116C38.7252 5.19679 39.6735 5 40.6413 5H285.359C286.327 5 287.275 5.19679 287.959 5.54116L299.915 11.5579C300.609 11.9072 301 12.3746 301 12.8665V61.8812C301 62.2649 300.765 62.6388 300.325 62.9487L292.417 68.5965C291.733 69.0786 291.371 69.6493 291.371 70.2446V112.755C291.371 113.351 291.733 113.921 292.417 114.403L300.325 120.051C300.765 120.366 301 120.735 301 121.119V170.129C301 170.63 300.609 171.093 299.915 171.442L287.959 177.459C287.275 177.803 286.327 178 285.359 178Z" fill="#023340"/>
</mask>
<g mask="url(#mask0_209_7650)">
<path d="M285.302 180H39.7078C38.4618 180 37.2649 179.75 36.382 179.299L24.3833 173.174C23.5004 172.724 23 172.119 23 171.478V121.627C23 121.132 23.3041 120.646 23.8634 120.246L31.8101 114.501C32.3693 114.096 32.6637 113.616 32.6637 113.12V69.8798C32.6637 69.3844 32.3693 68.904 31.8101 68.4987L23.8634 62.754C23.3041 62.3536 23 61.8682 23 61.3728V11.517C23 10.8815 23.5004 10.276 24.3833 9.82559L36.382 3.70057C37.2649 3.25021 38.4618 3 39.7078 3H285.302C286.548 3 287.745 3.25021 288.628 3.70057L300.626 9.82559C301.509 10.276 302 10.8815 302 11.517V61.3728C302 61.8682 301.706 62.3536 301.146 62.754L293.2 68.4987C292.64 68.904 292.346 69.3844 292.346 69.8798V113.12C292.346 113.616 292.64 114.096 293.2 114.501L301.146 120.246C301.706 120.646 302 121.132 302 121.627V171.478C302 172.119 301.509 172.724 300.626 173.174L288.628 179.299C287.745 179.75 286.548 180 285.302 180ZM39.7078 3.51542C38.7366 3.51542 37.7849 3.71559 37.0981 4.06587L25.0995 10.1859C24.3931 10.5412 24.0105 11.0166 24.0105 11.517V61.3728C24.0105 61.7631 24.246 62.1435 24.6875 62.4587L32.6244 68.2034C33.3112 68.6938 33.6742 69.2743 33.6742 69.8798V113.12C33.6742 113.726 33.3112 114.306 32.6244 114.797L24.6875 120.541C24.246 120.862 24.0105 121.237 24.0105 121.627V171.478C24.0105 171.988 24.3931 172.459 25.0995 172.814L37.0981 178.934C37.7849 179.284 38.7366 179.485 39.7078 179.485H285.302C286.273 179.485 287.225 179.284 287.912 178.934L299.91 172.814C300.607 172.459 300.999 171.988 300.999 171.478V121.627C300.999 121.237 300.764 120.862 300.322 120.541L292.385 114.797C291.699 114.306 291.336 113.726 291.336 113.12V69.8798C291.336 69.2743 291.699 68.6938 292.385 68.2034L300.322 62.4587C300.764 62.1435 300.999 61.7631 300.999 61.3728V11.517C300.999 11.0166 300.607 10.5412 299.91 10.1859L287.912 4.06587C287.225 3.71559 286.273 3.51542 285.302 3.51542H39.7078Z" fill="#FD8D26"/>
<path d="M285.359 178H40.6413C39.6735 178 38.7252 177.803 38.0409 177.459L26.0851 171.442C25.3813 171.093 25 170.63 25 170.129V121.119C25 120.735 25.2346 120.366 25.6745 120.051L33.5831 114.403C34.2675 113.921 34.6292 113.351 34.6292 112.755V70.2446C34.6292 69.6493 34.2675 69.0786 33.5831 68.5965L25.6745 62.9487C25.2346 62.6388 25 62.2649 25 61.8812V12.8665C25 12.3746 25.3813 11.9072 26.0851 11.5579L38.0409 5.54116C38.7252 5.19679 39.6735 5 40.6413 5H285.359C286.327 5 287.275 5.19679 287.959 5.54116L299.915 11.5579C300.609 11.9072 301 12.3746 301 12.8665V61.8812C301 62.2649 300.765 62.6388 300.325 62.9487L292.417 68.5965C291.733 69.0786 291.371 69.6493 291.371 70.2446V112.755C291.371 113.351 291.733 113.921 292.417 114.403L300.325 120.051C300.765 120.366 301 120.735 301 121.119V170.129C301 170.63 300.609 171.093 299.915 171.442L287.959 177.459C287.275 177.803 286.327 178 285.359 178Z" fill="#1F0F00" fill-opacity="0.6"/>
<path d="M75.5801 84.24C74.3001 84.24 73.3321 83.88 72.6761 83.16C72.0201 82.424 71.6921 81.376 71.6921 80.016V79.056H74.1881V80.208C74.1881 81.296 74.6441 81.84 75.5561 81.84C76.0041 81.84 76.3401 81.712 76.5641 81.456C76.8041 81.184 76.9241 80.752 76.9241 80.16C76.9241 79.456 76.7641 78.84 76.4441 78.312C76.1241 77.768 75.5321 77.12 74.6681 76.368C73.5801 75.408 72.8201 74.544 72.3881 73.776C71.9561 72.992 71.7401 72.112 71.7401 71.136C71.7401 69.808 72.0761 68.784 72.7481 68.064C73.4201 67.328 74.3961 66.96 75.6761 66.96C76.9401 66.96 77.8921 67.328 78.5321 68.064C79.1881 68.784 79.5161 69.824 79.5161 71.184V71.88H77.0201V71.016C77.0201 70.44 76.9081 70.024 76.6841 69.768C76.4601 69.496 76.1321 69.36 75.7001 69.36C74.8201 69.36 74.3801 69.896 74.3801 70.968C74.3801 71.576 74.5401 72.144 74.8601 72.672C75.1961 73.2 75.7961 73.84 76.6601 74.592C77.7641 75.552 78.5241 76.424 78.9401 77.208C79.3561 77.992 79.5641 78.912 79.5641 79.968C79.5641 81.344 79.2201 82.4 78.5321 83.136C77.8601 83.872 76.8761 84.24 75.5801 84.24ZM81.0778 67.2H88.2778V69.6H83.7178V74.04H87.3418V76.44H83.7178V81.6H88.2778V84H81.0778V67.2ZM89.7965 67.2H92.4365V81.6H96.7805V84H89.7965V67.2ZM98.0465 67.2H105.247V69.6H100.687V74.04H104.311V76.44H100.687V81.6H105.247V84H98.0465V67.2ZM110.485 84.24C109.221 84.24 108.253 83.88 107.581 83.16C106.925 82.44 106.597 81.424 106.597 80.112V71.088C106.597 69.776 106.925 68.76 107.581 68.04C108.253 67.32 109.221 66.96 110.485 66.96C111.749 66.96 112.709 67.32 113.365 68.04C114.037 68.76 114.373 69.776 114.373 71.088V72.864H111.877V70.92C111.877 69.88 111.437 69.36 110.557 69.36C109.677 69.36 109.237 69.88 109.237 70.92V80.304C109.237 81.328 109.677 81.84 110.557 81.84C111.437 81.84 111.877 81.328 111.877 80.304V77.736H114.373V80.112C114.373 81.424 114.037 82.44 113.365 83.16C112.709 83.88 111.749 84.24 110.485 84.24ZM118.017 69.6H115.257V67.2H123.417V69.6H120.657V84H118.017V69.6ZM128.539 67.2H135.739V69.6H131.179V74.04H134.803V76.44H131.179V81.6H135.739V84H128.539V67.2ZM137.257 67.2H140.569L143.137 77.256H143.185V67.2H145.537V84H142.825L139.657 71.736H139.609V84H137.257V67.2ZM149.564 69.6H146.804V67.2H154.964V69.6H152.204V84H149.564V69.6ZM156.242 67.2H158.882V84H156.242V67.2ZM162.923 69.6H160.163V67.2H168.323V69.6H165.563V84H162.923V69.6ZM172.119 76.848L168.927 67.2H171.735L173.535 73.368H173.583L175.383 67.2H177.951L174.759 76.848V84H172.119V76.848ZM182.984 67.2H189.968V69.6H185.624V74.28H189.032V76.68H185.624V84H182.984V67.2ZM191.234 67.2H195.146C196.506 67.2 197.498 67.52 198.122 68.16C198.746 68.784 199.058 69.752 199.058 71.064V72.096C199.058 73.84 198.482 74.944 197.33 75.408V75.456C197.97 75.648 198.418 76.04 198.674 76.632C198.946 77.224 199.082 78.016 199.082 79.008V81.96C199.082 82.44 199.098 82.832 199.13 83.136C199.162 83.424 199.242 83.712 199.37 84H196.682C196.586 83.728 196.522 83.472 196.49 83.232C196.458 82.992 196.442 82.56 196.442 81.936V78.864C196.442 78.096 196.314 77.56 196.058 77.256C195.818 76.952 195.394 76.8 194.786 76.8H193.874V84H191.234V67.2ZM194.834 74.4C195.362 74.4 195.754 74.264 196.01 73.992C196.282 73.72 196.418 73.264 196.418 72.624V71.328C196.418 70.72 196.306 70.28 196.082 70.008C195.874 69.736 195.538 69.6 195.074 69.6H193.874V74.4H194.834ZM204.73 84.24C203.434 84.24 202.442 83.872 201.754 83.136C201.066 82.4 200.722 81.36 200.722 80.016V71.184C200.722 69.84 201.066 68.8 201.754 68.064C202.442 67.328 203.434 66.96 204.73 66.96C206.026 66.96 207.018 67.328 207.706 68.064C208.394 68.8 208.738 69.84 208.738 71.184V80.016C208.738 81.36 208.394 82.4 207.706 83.136C207.018 83.872 206.026 84.24 204.73 84.24ZM204.73 81.84C205.642 81.84 206.098 81.288 206.098 80.184V71.016C206.098 69.912 205.642 69.36 204.73 69.36C203.818 69.36 203.362 69.912 203.362 71.016V80.184C203.362 81.288 203.818 81.84 204.73 81.84ZM210.523 67.2H214.291L215.971 79.224H216.019L217.699 67.2H221.467V84H218.971V71.28H218.923L217.003 84H214.795L212.875 71.28H212.827V84H210.523V67.2ZM229.345 69.6H226.585V67.2H234.745V69.6H231.985V84H229.345V69.6ZM236.023 67.2H238.663V74.04H241.495V67.2H244.135V84H241.495V76.44H238.663V84H236.023V67.2ZM246.101 67.2H253.301V69.6H248.741V74.04H252.365V76.44H248.741V81.6H253.301V84H246.101V67.2ZM112.625 96.2H119.609V98.6H115.265V103.28H118.673V105.68H115.265V113H112.625V96.2ZM124.691 113.24C123.395 113.24 122.403 112.872 121.715 112.136C121.027 111.4 120.683 110.36 120.683 109.016V100.184C120.683 98.84 121.027 97.8 121.715 97.064C122.403 96.328 123.395 95.96 124.691 95.96C125.987 95.96 126.979 96.328 127.667 97.064C128.355 97.8 128.699 98.84 128.699 100.184V109.016C128.699 110.36 128.355 111.4 127.667 112.136C126.979 112.872 125.987 113.24 124.691 113.24ZM124.691 110.84C125.603 110.84 126.059 110.288 126.059 109.184V100.016C126.059 98.912 125.603 98.36 124.691 98.36C123.779 98.36 123.323 98.912 123.323 100.016V109.184C123.323 110.288 123.779 110.84 124.691 110.84ZM130.484 96.2H134.396C135.756 96.2 136.748 96.52 137.372 97.16C137.996 97.784 138.308 98.752 138.308 100.064V101.096C138.308 102.84 137.732 103.944 136.58 104.408V104.456C137.22 104.648 137.668 105.04 137.924 105.632C138.196 106.224 138.332 107.016 138.332 108.008V110.96C138.332 111.44 138.348 111.832 138.38 112.136C138.412 112.424 138.492 112.712 138.62 113H135.932C135.836 112.728 135.772 112.472 135.74 112.232C135.708 111.992 135.692 111.56 135.692 110.936V107.864C135.692 107.096 135.564 106.56 135.308 106.256C135.068 105.952 134.644 105.8 134.036 105.8H133.124V113H130.484V96.2ZM134.084 103.4C134.612 103.4 135.004 103.264 135.26 102.992C135.532 102.72 135.668 102.264 135.668 101.624V100.328C135.668 99.72 135.556 99.28 135.332 99.008C135.124 98.736 134.788 98.6 134.324 98.6H133.124V103.4H134.084ZM143.908 113.24C142.628 113.24 141.652 112.88 140.98 112.16C140.308 111.424 139.972 110.376 139.972 109.016V100.184C139.972 98.824 140.308 97.784 140.98 97.064C141.652 96.328 142.628 95.96 143.908 95.96C145.188 95.96 146.164 96.328 146.836 97.064C147.508 97.784 147.844 98.824 147.844 100.184V101.624H145.348V100.016C145.348 98.912 144.892 98.36 143.98 98.36C143.068 98.36 142.612 98.912 142.612 100.016V109.208C142.612 110.296 143.068 110.84 143.98 110.84C144.892 110.84 145.348 110.296 145.348 109.208V105.92H144.028V103.52H147.844V109.016C147.844 110.376 147.508 111.424 146.836 112.16C146.164 112.88 145.188 113.24 143.908 113.24ZM149.539 96.2H152.179V113H149.539V96.2ZM154.156 96.2H157.468L160.036 106.256H160.084V96.2H162.436V113H159.724L156.556 100.736H156.508V113H154.156V96.2ZM168.142 113.24C166.862 113.24 165.886 112.88 165.214 112.16C164.542 111.424 164.206 110.376 164.206 109.016V100.184C164.206 98.824 164.542 97.784 165.214 97.064C165.886 96.328 166.862 95.96 168.142 95.96C169.422 95.96 170.398 96.328 171.07 97.064C171.742 97.784 172.078 98.824 172.078 100.184V101.624H169.582V100.016C169.582 98.912 169.126 98.36 168.214 98.36C167.302 98.36 166.846 98.912 166.846 100.016V109.208C166.846 110.296 167.302 110.84 168.214 110.84C169.126 110.84 169.582 110.296 169.582 109.208V105.92H168.262V103.52H172.078V109.016C172.078 110.376 171.742 111.424 171.07 112.16C170.398 112.88 169.422 113.24 168.142 113.24ZM177.617 96.2H181.505C182.817 96.2 183.801 96.552 184.457 97.256C185.113 97.96 185.441 98.992 185.441 100.352V102.008C185.441 103.368 185.113 104.4 184.457 105.104C183.801 105.808 182.817 106.16 181.505 106.16H180.257V113H177.617V96.2ZM181.505 103.76C181.937 103.76 182.257 103.64 182.465 103.4C182.689 103.16 182.801 102.752 182.801 102.176V100.184C182.801 99.608 182.689 99.2 182.465 98.96C182.257 98.72 181.937 98.6 181.505 98.6H180.257V103.76H181.505ZM190.691 113.24C189.395 113.24 188.403 112.872 187.715 112.136C187.027 111.4 186.683 110.36 186.683 109.016V100.184C186.683 98.84 187.027 97.8 187.715 97.064C188.403 96.328 189.395 95.96 190.691 95.96C191.987 95.96 192.979 96.328 193.667 97.064C194.355 97.8 194.699 98.84 194.699 100.184V109.016C194.699 110.36 194.355 111.4 193.667 112.136C192.979 112.872 191.987 113.24 190.691 113.24ZM190.691 110.84C191.603 110.84 192.059 110.288 192.059 109.184V100.016C192.059 98.912 191.603 98.36 190.691 98.36C189.779 98.36 189.323 98.912 189.323 100.016V109.184C189.323 110.288 189.779 110.84 190.691 110.84ZM200.3 113.24C199.004 113.24 198.012 112.872 197.324 112.136C196.636 111.4 196.292 110.36 196.292 109.016V100.184C196.292 98.84 196.636 97.8 197.324 97.064C198.012 96.328 199.004 95.96 200.3 95.96C201.596 95.96 202.588 96.328 203.276 97.064C203.964 97.8 204.308 98.84 204.308 100.184V109.016C204.308 110.36 203.964 111.4 203.276 112.136C202.588 112.872 201.596 113.24 200.3 113.24ZM200.3 110.84C201.212 110.84 201.668 110.288 201.668 109.184V100.016C201.668 98.912 201.212 98.36 200.3 98.36C199.388 98.36 198.932 98.912 198.932 100.016V109.184C198.932 110.288 199.388 110.84 200.3 110.84ZM206.093 96.2H208.733V110.6H213.077V113H206.093V96.2Z" fill="white"/>
</g>
</svg>
