<svg width="200" height="332" viewBox="0 0 200 332" fill="none" xmlns="http://www.w3.org/2000/svg">
<path d="M194.422 220.743V310.589C194.422 311.509 194.155 312.357 193.68 312.997L185.504 324.027C185.036 324.659 184.388 325.019 183.726 325.019H16.3733C15.7114 325.019 15.063 324.659 14.595 324.027L6.41891 312.997C5.93757 312.357 5.67684 311.509 5.67684 310.589V220.743C5.67684 220.04 5.83729 219.363 6.13813 218.786L11.5465 208.432C12.0145 207.548 12.2618 206.502 12.2618 205.411V127.479C12.2618 126.388 12.0145 125.341 11.5465 124.458L6.13813 114.104C5.83729 113.536 5.67684 112.85 5.67684 112.147V22.2917C5.67684 21.3898 5.93757 20.533 6.41891 19.8927L14.595 8.86258C15.063 8.23126 15.7114 7.8705 16.3733 7.8705H183.726C184.388 7.8705 185.036 8.23126 185.504 8.86258L193.68 19.8927C194.155 20.533 194.422 21.3898 194.422 22.2917V112.147C194.422 112.85 194.262 113.536 193.961 114.104L188.553 124.458C188.085 125.341 187.837 126.388 187.837 127.479V205.411C187.837 206.502 188.085 207.548 188.553 208.432L193.961 218.786C194.262 219.363 194.422 220.04 194.422 220.743ZM195.084 115.177C195.545 114.284 195.793 113.238 195.793 112.147V97.5632L199.597 92.4405V43.3688L195.793 38.2461V22.2917C195.793 20.8938 195.392 19.577 194.656 18.5849L186.48 7.55484C185.758 6.57178 184.749 6.01261 183.726 6.01261H137.437L133.64 0.889893H66.2321L62.4281 6.01261H16.3733C15.3504 6.01261 14.3476 6.57178 13.6256 7.55484L5.44286 18.5849C4.70748 19.577 4.30636 20.8938 4.30636 22.2917V38.2461L0.502441 43.3688V92.4405L4.30636 97.5632V112.147C4.30636 113.238 4.54703 114.284 5.015 115.177L8.2373 121.337V211.562L5.015 217.713C4.54703 218.606 4.30636 219.652 4.30636 220.743V234.479L0.502441 239.601V288.673L4.30636 293.796V310.589C4.30636 311.996 4.70748 313.313 5.44286 314.305L13.6256 325.335C14.3476 326.318 15.3504 326.877 16.3733 326.877H62.4281L66.2321 332H133.64L137.437 326.877H183.726C184.749 326.877 185.751 326.318 186.48 325.335L194.656 314.305C195.392 313.313 195.793 311.996 195.793 310.589V293.796L199.597 288.673V239.601L195.793 234.479V220.743C195.793 219.652 195.545 218.606 195.084 217.713L191.935 211.697V121.193L195.084 115.177Z" fill="#0ADFDB"/>
</svg>
