<svg width="325" height="183" viewBox="0 0 325 183" fill="none" xmlns="http://www.w3.org/2000/svg">
<path d="M300.437 121.51V171.167C300.437 171.675 300.046 172.144 299.352 172.497L287.402 178.594C286.718 178.943 285.77 179.142 284.803 179.142H40.1971C39.2298 179.142 38.282 178.943 37.598 178.594L25.6476 172.497C24.9441 172.144 24.563 171.675 24.563 171.167V121.51C24.563 121.121 24.7975 120.747 25.2372 120.428L33.1422 114.706C33.8262 114.217 34.1878 113.639 34.1878 113.036V69.964C34.1878 69.3609 33.8262 68.7826 33.1422 68.2941L25.2372 62.5718C24.7975 62.2578 24.563 61.879 24.563 61.4902V11.8285C24.563 11.33 24.9441 10.8565 25.6476 10.5026L37.598 4.4064C38.282 4.05747 39.2298 3.85809 40.1971 3.85809H284.803C285.77 3.85809 286.718 4.05747 287.402 4.4064L299.352 10.5026C300.046 10.8565 300.437 11.33 300.437 11.8285V61.4902C300.437 61.879 300.202 62.2578 299.763 62.5718L291.858 68.2941C291.174 68.7826 290.812 69.3609 290.812 69.964V113.036C290.812 113.639 291.174 114.217 291.858 114.706L299.763 120.428C300.202 120.747 300.437 121.121 300.437 121.51ZM301.404 63.165C302.079 62.6715 302.44 62.0933 302.44 61.4902V53.43L308 50.5988V23.4775L302.44 20.6463V11.8285C302.44 11.0559 301.854 10.3281 300.779 9.77981L288.829 3.68363C287.773 3.1403 286.298 2.83126 284.803 2.83126H217.146L211.596 0H113.072L107.512 2.83126H40.1971C38.7021 2.83126 37.2364 3.1403 36.1811 3.68363L24.221 9.77981C23.1462 10.3281 22.5599 11.0559 22.5599 11.8285V20.6463L17 23.4775V50.5988L22.5599 53.43V61.4902C22.5599 62.0933 22.9117 62.6715 23.5956 63.165L28.3054 66.5695V116.436L23.5956 119.835C22.9117 120.328 22.5599 120.907 22.5599 121.51V129.101L17 131.933V159.054L22.5599 161.885V171.167C22.5599 171.944 23.1462 172.672 24.221 173.22L36.1811 179.316C37.2364 179.86 38.7021 180.169 40.1971 180.169H107.512L113.072 183H211.596L217.146 180.169H284.803C286.298 180.169 287.764 179.86 288.829 179.316L300.779 173.22C301.854 172.672 302.44 171.944 302.44 171.167V161.885L308 159.054V131.933L302.44 129.101V121.51C302.44 120.907 302.079 120.328 301.404 119.835L296.802 116.51V66.4897L301.404 63.165Z" fill="#FD8D26"/>
<mask id="mask0_209_7656" style="mask-type:alpha" maskUnits="userSpaceOnUse" x="25" y="5" width="276" height="173">
<path d="M285.359 178H40.6413C39.6735 178 38.7252 177.803 38.0409 177.459L26.0851 171.442C25.3813 171.093 25 170.63 25 170.129V121.119C25 120.735 25.2346 120.366 25.6745 120.051L33.5831 114.403C34.2675 113.921 34.6292 113.351 34.6292 112.755V70.2446C34.6292 69.6493 34.2675 69.0786 33.5831 68.5965L25.6745 62.9487C25.2346 62.6388 25 62.2649 25 61.8812V12.8665C25 12.3746 25.3813 11.9072 26.0851 11.5579L38.0409 5.54116C38.7252 5.19679 39.6735 5 40.6413 5H285.359C286.327 5 287.275 5.19679 287.959 5.54116L299.915 11.5579C300.609 11.9072 301 12.3746 301 12.8665V61.8812C301 62.2649 300.765 62.6388 300.325 62.9487L292.417 68.5965C291.733 69.0786 291.371 69.6493 291.371 70.2446V112.755C291.371 113.351 291.733 113.921 292.417 114.403L300.325 120.051C300.765 120.366 301 120.735 301 121.119V170.129C301 170.63 300.609 171.093 299.915 171.442L287.959 177.459C287.275 177.803 286.327 178 285.359 178Z" fill="#023340"/>
</mask>
<g mask="url(#mask0_209_7656)">
<path d="M285.302 180H39.7078C38.4618 180 37.2649 179.75 36.382 179.299L24.3833 173.174C23.5004 172.724 23 172.119 23 171.478V121.627C23 121.132 23.3041 120.646 23.8634 120.246L31.8101 114.501C32.3693 114.096 32.6637 113.616 32.6637 113.12V69.8798C32.6637 69.3844 32.3693 68.904 31.8101 68.4987L23.8634 62.754C23.3041 62.3536 23 61.8682 23 61.3728V11.517C23 10.8815 23.5004 10.276 24.3833 9.82559L36.382 3.70057C37.2649 3.25021 38.4618 3 39.7078 3H285.302C286.548 3 287.745 3.25021 288.628 3.70057L300.626 9.82559C301.509 10.276 302 10.8815 302 11.517V61.3728C302 61.8682 301.706 62.3536 301.146 62.754L293.2 68.4987C292.64 68.904 292.346 69.3844 292.346 69.8798V113.12C292.346 113.616 292.64 114.096 293.2 114.501L301.146 120.246C301.706 120.646 302 121.132 302 121.627V171.478C302 172.119 301.509 172.724 300.626 173.174L288.628 179.299C287.745 179.75 286.548 180 285.302 180ZM39.7078 3.51542C38.7366 3.51542 37.7849 3.71559 37.0981 4.06587L25.0995 10.1859C24.3931 10.5412 24.0105 11.0166 24.0105 11.517V61.3728C24.0105 61.7631 24.246 62.1435 24.6875 62.4587L32.6244 68.2034C33.3112 68.6938 33.6742 69.2743 33.6742 69.8798V113.12C33.6742 113.726 33.3112 114.306 32.6244 114.797L24.6875 120.541C24.246 120.862 24.0105 121.237 24.0105 121.627V171.478C24.0105 171.988 24.3931 172.459 25.0995 172.814L37.0981 178.934C37.7849 179.284 38.7366 179.485 39.7078 179.485H285.302C286.273 179.485 287.225 179.284 287.912 178.934L299.91 172.814C300.607 172.459 300.999 171.988 300.999 171.478V121.627C300.999 121.237 300.764 120.862 300.322 120.541L292.385 114.797C291.699 114.306 291.336 113.726 291.336 113.12V69.8798C291.336 69.2743 291.699 68.6938 292.385 68.2034L300.322 62.4587C300.764 62.1435 300.999 61.7631 300.999 61.3728V11.517C300.999 11.0166 300.607 10.5412 299.91 10.1859L287.912 4.06587C287.225 3.71559 286.273 3.51542 285.302 3.51542H39.7078Z" fill="#FD8D26"/>
<path d="M285.359 178H40.6413C39.6735 178 38.7252 177.803 38.0409 177.459L26.0851 171.442C25.3813 171.093 25 170.63 25 170.129V121.119C25 120.735 25.2346 120.366 25.6745 120.051L33.5831 114.403C34.2675 113.921 34.6292 113.351 34.6292 112.755V70.2446C34.6292 69.6493 34.2675 69.0786 33.5831 68.5965L25.6745 62.9487C25.2346 62.6388 25 62.2649 25 61.8812V12.8665C25 12.3746 25.3813 11.9072 26.0851 11.5579L38.0409 5.54116C38.7252 5.19679 39.6735 5 40.6413 5H285.359C286.327 5 287.275 5.19679 287.959 5.54116L299.915 11.5579C300.609 11.9072 301 12.3746 301 12.8665V61.8812C301 62.2649 300.765 62.6388 300.325 62.9487L292.417 68.5965C291.733 69.0786 291.371 69.6493 291.371 70.2446V112.755C291.371 113.351 291.733 113.921 292.417 114.403L300.325 120.051C300.765 120.366 301 120.735 301 121.119V170.129C301 170.63 300.609 171.093 299.915 171.442L287.959 177.459C287.275 177.803 286.327 178 285.359 178Z" fill="#1F0F00" fill-opacity="0.6"/>
<path d="M90.7715 92.24C89.4915 92.24 88.5235 91.88 87.8675 91.16C87.2115 90.424 86.8835 89.376 86.8835 88.016V87.056H89.3795V88.208C89.3795 89.296 89.8355 89.84 90.7475 89.84C91.1955 89.84 91.5315 89.712 91.7555 89.456C91.9955 89.184 92.1155 88.752 92.1155 88.16C92.1155 87.456 91.9555 86.84 91.6355 86.312C91.3155 85.768 90.7235 85.12 89.8595 84.368C88.7715 83.408 88.0115 82.544 87.5795 81.776C87.1475 80.992 86.9315 80.112 86.9315 79.136C86.9315 77.808 87.2675 76.784 87.9395 76.064C88.6115 75.328 89.5875 74.96 90.8675 74.96C92.1315 74.96 93.0835 75.328 93.7235 76.064C94.3795 76.784 94.7075 77.824 94.7075 79.184V79.88H92.2115V79.016C92.2115 78.44 92.0995 78.024 91.8755 77.768C91.6515 77.496 91.3235 77.36 90.8915 77.36C90.0115 77.36 89.5715 77.896 89.5715 78.968C89.5715 79.576 89.7315 80.144 90.0515 80.672C90.3875 81.2 90.9875 81.84 91.8515 82.592C92.9555 83.552 93.7155 84.424 94.1315 85.208C94.5475 85.992 94.7555 86.912 94.7555 87.968C94.7555 89.344 94.4115 90.4 93.7235 91.136C93.0515 91.872 92.0675 92.24 90.7715 92.24ZM96.2692 75.2H103.469V77.6H98.9092V82.04H102.533V84.44H98.9092V89.6H103.469V92H96.2692V75.2ZM104.988 75.2H107.628V89.6H111.972V92H104.988V75.2ZM113.238 75.2H120.438V77.6H115.878V82.04H119.502V84.44H115.878V89.6H120.438V92H113.238V75.2ZM125.677 92.24C124.413 92.24 123.445 91.88 122.773 91.16C122.117 90.44 121.789 89.424 121.789 88.112V79.088C121.789 77.776 122.117 76.76 122.773 76.04C123.445 75.32 124.413 74.96 125.677 74.96C126.941 74.96 127.901 75.32 128.557 76.04C129.229 76.76 129.565 77.776 129.565 79.088V80.864H127.069V78.92C127.069 77.88 126.629 77.36 125.749 77.36C124.869 77.36 124.429 77.88 124.429 78.92V88.304C124.429 89.328 124.869 89.84 125.749 89.84C126.629 89.84 127.069 89.328 127.069 88.304V85.736H129.565V88.112C129.565 89.424 129.229 90.44 128.557 91.16C127.901 91.88 126.941 92.24 125.677 92.24ZM133.208 77.6H130.448V75.2H138.608V77.6H135.848V92H133.208V77.6ZM143.73 75.2H150.93V77.6H146.37V82.04H149.994V84.44H146.37V89.6H150.93V92H143.73V75.2ZM152.449 75.2H155.761L158.329 85.256H158.377V75.2H160.729V92H158.017L154.849 79.736H154.801V92H152.449V75.2ZM164.755 77.6H161.995V75.2H170.155V77.6H167.395V92H164.755V77.6ZM171.433 75.2H174.073V92H171.433V75.2ZM178.114 77.6H175.354V75.2H183.514V77.6H180.754V92H178.114V77.6ZM187.31 84.848L184.118 75.2H186.926L188.726 81.368H188.774L190.574 75.2H193.142L189.95 84.848V92H187.31V84.848ZM198.175 75.2H205.159V77.6H200.815V82.28H204.223V84.68H200.815V92H198.175V75.2ZM206.425 75.2H210.337C211.697 75.2 212.689 75.52 213.313 76.16C213.937 76.784 214.249 77.752 214.249 79.064V80.096C214.249 81.84 213.673 82.944 212.521 83.408V83.456C213.161 83.648 213.609 84.04 213.865 84.632C214.137 85.224 214.273 86.016 214.273 87.008V89.96C214.273 90.44 214.289 90.832 214.321 91.136C214.353 91.424 214.433 91.712 214.561 92H211.873C211.777 91.728 211.713 91.472 211.681 91.232C211.649 90.992 211.633 90.56 211.633 89.936V86.864C211.633 86.096 211.505 85.56 211.249 85.256C211.009 84.952 210.585 84.8 209.977 84.8H209.065V92H206.425V75.2ZM210.025 82.4C210.553 82.4 210.945 82.264 211.201 81.992C211.473 81.72 211.609 81.264 211.609 80.624V79.328C211.609 78.72 211.497 78.28 211.273 78.008C211.065 77.736 210.729 77.6 210.265 77.6H209.065V82.4H210.025ZM219.921 92.24C218.625 92.24 217.633 91.872 216.945 91.136C216.257 90.4 215.913 89.36 215.913 88.016V79.184C215.913 77.84 216.257 76.8 216.945 76.064C217.633 75.328 218.625 74.96 219.921 74.96C221.217 74.96 222.209 75.328 222.897 76.064C223.585 76.8 223.929 77.84 223.929 79.184V88.016C223.929 89.36 223.585 90.4 222.897 91.136C222.209 91.872 221.217 92.24 219.921 92.24ZM219.921 89.84C220.833 89.84 221.289 89.288 221.289 88.184V79.016C221.289 77.912 220.833 77.36 219.921 77.36C219.009 77.36 218.553 77.912 218.553 79.016V88.184C218.553 89.288 219.009 89.84 219.921 89.84ZM225.714 75.2H229.482L231.162 87.224H231.21L232.89 75.2H236.658V92H234.162V79.28H234.114L232.194 92H229.986L228.066 79.28H228.018V92H225.714V75.2ZM116.189 113.848L112.997 104.2H115.805L117.605 110.368H117.653L119.453 104.2H122.021L118.829 113.848V121H116.189V113.848ZM126.605 121.24C125.309 121.24 124.317 120.872 123.629 120.136C122.941 119.4 122.597 118.36 122.597 117.016V108.184C122.597 106.84 122.941 105.8 123.629 105.064C124.317 104.328 125.309 103.96 126.605 103.96C127.901 103.96 128.893 104.328 129.581 105.064C130.269 105.8 130.613 106.84 130.613 108.184V117.016C130.613 118.36 130.269 119.4 129.581 120.136C128.893 120.872 127.901 121.24 126.605 121.24ZM126.605 118.84C127.517 118.84 127.973 118.288 127.973 117.184V108.016C127.973 106.912 127.517 106.36 126.605 106.36C125.693 106.36 125.237 106.912 125.237 108.016V117.184C125.237 118.288 125.693 118.84 126.605 118.84ZM136.238 121.24C134.958 121.24 133.982 120.88 133.31 120.16C132.638 119.424 132.302 118.376 132.302 117.016V104.2H134.942V117.208C134.942 117.784 135.054 118.2 135.278 118.456C135.518 118.712 135.854 118.84 136.286 118.84C136.718 118.84 137.046 118.712 137.27 118.456C137.51 118.2 137.63 117.784 137.63 117.208V104.2H140.174V117.016C140.174 118.376 139.838 119.424 139.166 120.16C138.494 120.88 137.518 121.24 136.238 121.24ZM142.054 104.2H145.966C147.326 104.2 148.318 104.52 148.942 105.16C149.566 105.784 149.878 106.752 149.878 108.064V109.096C149.878 110.84 149.302 111.944 148.15 112.408V112.456C148.79 112.648 149.238 113.04 149.494 113.632C149.766 114.224 149.902 115.016 149.902 116.008V118.96C149.902 119.44 149.918 119.832 149.95 120.136C149.982 120.424 150.062 120.712 150.19 121H147.502C147.406 120.728 147.342 120.472 147.31 120.232C147.278 119.992 147.262 119.56 147.262 118.936V115.864C147.262 115.096 147.134 114.56 146.878 114.256C146.638 113.952 146.214 113.8 145.606 113.8H144.694V121H142.054V104.2ZM145.654 111.4C146.182 111.4 146.574 111.264 146.83 110.992C147.102 110.72 147.238 110.264 147.238 109.624V108.328C147.238 107.72 147.126 107.28 146.902 107.008C146.694 106.736 146.358 106.6 145.894 106.6H144.694V111.4H145.654ZM154.954 104.2H157.498L158.674 117.112H158.722L159.97 104.2H162.85L164.098 117.112H164.146L165.322 104.2H167.602L165.898 121H162.61L161.41 109.672H161.362L160.162 121H156.658L154.954 104.2ZM170.649 104.2H174.225L176.961 121H174.321L173.841 117.664V117.712H170.841L170.361 121H167.913L170.649 104.2ZM173.529 115.432L172.353 107.128H172.305L171.153 115.432H173.529ZM178.242 104.2H180.882V118.6H185.226V121H178.242V104.2ZM186.492 104.2H189.132V118.6H193.476V121H186.492V104.2ZM194.742 104.2H201.942V106.6H197.382V111.04H201.006V113.44H197.382V118.6H201.942V121H194.742V104.2ZM205.525 106.6H202.765V104.2H210.925V106.6H208.165V121H205.525V106.6Z" fill="white"/>
</g>
</svg>
