<?xml version="1.0" standalone="no"?>
<!DOCTYPE svg PUBLIC "-//W3C//DTD SVG 20010904//EN"
 "http://www.w3.org/TR/2001/REC-SVG-20010904/DTD/svg10.dtd">
<svg version="1.0" xmlns="http://www.w3.org/2000/svg"
 width="355.000000pt" height="355.000000pt" viewBox="0 0 355.000000 355.000000"
 preserveAspectRatio="xMidYMid meet">
<metadata>
Created by potrace 1.14, written by Peter Selinger 2001-2017
</metadata>
<g transform="translate(0.000000,355.000000) scale(0.100000,-0.100000)"
fill="#000000" stroke="none">
<path d="M1690 3220 l0 -330 475 0 475 0 -2 208 -3 207 -195 0 -195 0 -3 123
-3 122 -274 0 -275 0 0 -330z"/>
<path d="M2730 3110 l0 -330 180 0 180 0 0 330 0 330 -180 0 -180 0 0 -330z"/>
<path d="M1502 3314 c-320 -85 -641 -280 -871 -528 -20 -21 -41 -44 -47 -50
-26 -28 -123 -160 -119 -164 2 -2 36 15 76 39 212 123 546 244 734 264 33 3
67 8 76 11 9 2 63 5 120 5 l104 2 0 215 c0 135 -4 216 -10 218 -6 1 -34 -4
-63 -12z"/>
<path d="M1380 2472 l0 -267 125 -125 126 -125 119 122 c66 67 120 124 120
128 0 3 -10 16 -22 29 -13 13 -53 55 -90 93 l-68 71 0 171 0 171 -155 0 -155
0 0 -268z"/>
<path d="M1810 2588 l1 -153 77 -71 78 -72 77 73 77 73 0 151 0 151 -155 0
-155 0 0 -152z"/>
<path d="M2236 2573 l1 -168 -466 -467 -466 -468 0 -345 c0 -190 1 -345 3
-345 1 0 65 62 141 138 l138 137 -1 98 -1 98 480 477 480 477 0 268 0 267
-155 0 -155 0 1 -167z"/>
<path d="M2300 1783 c-1 -5 -50 -60 -110 -123 l-110 -114 39 -41 c21 -22 84
-87 140 -145 l101 -105 0 -100 0 -100 140 -140 140 -140 0 348 0 347 -160 160
c-146 146 -179 174 -180 153z"/>
<path d="M1859 1345 c-30 -31 -55 -60 -57 -65 -2 -6 64 -10 168 -10 102 0 170
4 168 9 -1 5 -27 35 -56 65 -53 55 -54 56 -112 56 -57 0 -59 -1 -111 -55z"/>
<path d="M1837 1009 c26 -28 52 -57 56 -65 9 -16 143 -20 149 -5 2 5 27 35 56
65 l54 56 -182 0 -181 0 48 -51z"/>
<path d="M1979 694 l-279 -278 0 -140 0 -139 41 -53 c22 -29 47 -58 54 -64 11
-10 55 29 222 193 114 113 274 270 355 349 l148 145 -131 132 -131 132 -279
-277z"/>
<path d="M1538 831 l-128 -129 112 -112 111 -112 135 135 134 134 -107 107
c-58 58 -112 106 -118 106 -7 0 -69 -58 -139 -129z"/>
<path d="M2174 208 c-49 -51 -93 -99 -98 -106 -4 -7 9 -27 35 -52 23 -22 45
-40 48 -40 3 0 30 25 59 56 l53 55 -3 90 -3 91 -91 -94z"/>
</g>
</svg>
