<svg width="250" height="415" viewBox="0 0 250 415" fill="none" xmlns="http://www.w3.org/2000/svg">
<path d="M229.626 406H20.3744C19.5469 406 18.7361 405.547 18.1509 404.755L7.92785 390.913C7.326 390.109 7 389.046 7 387.891V275.14C7 274.258 7.20061 273.409 7.57677 272.684L14.3392 259.691C14.9243 258.582 15.2336 257.269 15.2336 255.9V158.1C15.2336 156.731 14.9243 155.418 14.3392 154.309L7.57677 141.316C7.20061 140.603 7 139.742 7 138.86V26.0976C7 24.9658 7.326 23.8906 7.92785 23.087L18.1509 9.24499C18.7361 8.45272 19.5469 8 20.3744 8H229.626C230.453 8 231.264 8.45272 231.849 9.24499L242.072 23.087C242.666 23.8906 243 24.9658 243 26.0976V138.86C243 139.742 242.799 140.603 242.423 141.316L235.661 154.309C235.076 155.418 234.766 156.731 234.766 158.1V255.9C234.766 257.269 235.076 258.582 235.661 259.691L242.423 272.684C242.799 273.409 243 274.258 243 275.14V387.891C243 389.046 242.666 390.109 242.072 390.913L231.849 404.755C231.264 405.547 230.453 406 229.626 406Z" fill="#00181F" fill-opacity="0.6"/>
<path d="M242.659 275.11V387.538C242.659 388.689 242.324 389.75 241.73 390.551L231.499 404.354C230.914 405.144 230.102 405.595 229.274 405.595H19.8598C19.0316 405.595 18.2201 405.144 17.6345 404.354L7.4035 390.551C6.80118 389.75 6.47492 388.689 6.47492 387.538V275.11C6.47492 274.23 6.67569 273.384 7.05214 272.661L13.8199 259.705C14.4054 258.599 14.715 257.29 14.715 255.925V158.405C14.715 157.04 14.4054 155.731 13.8199 154.625L7.05214 141.669C6.67569 140.958 6.47492 140.1 6.47492 139.22V26.7809C6.47492 25.6523 6.80118 24.5801 7.4035 23.7789L17.6345 9.97652C18.2201 9.18652 19.0316 8.73509 19.8598 8.73509H229.274C230.102 8.73509 230.914 9.18652 231.499 9.97652L241.73 23.7789C242.324 24.5801 242.659 25.6523 242.659 26.7809V139.22C242.659 140.1 242.458 140.958 242.082 141.669L235.314 154.625C234.728 155.731 234.419 157.04 234.419 158.405V255.925C234.419 257.29 234.728 258.599 235.314 259.705L242.082 272.661C242.458 273.384 242.659 274.23 242.659 275.11ZM243.487 143.012C244.064 141.894 244.374 140.585 244.374 139.22V120.971L249.134 114.561V53.1554L244.374 46.7452V26.7809C244.374 25.0316 243.872 23.3839 242.952 22.1424L232.721 8.3401C231.817 7.10996 230.554 6.41025 229.274 6.41025H171.351L166.6 0H82.2499L77.4899 6.41025H19.8598C18.5798 6.41025 17.325 7.10996 16.4215 8.3401L6.18213 22.1424C5.26192 23.3839 4.75999 25.0316 4.75999 26.7809V46.7452L0 53.1554V114.561L4.75999 120.971V139.22C4.75999 140.585 5.06115 141.894 5.64673 143.012L9.67892 150.72V263.622L5.64673 271.318C5.06115 272.436 4.75999 273.745 4.75999 275.11V292.298L0 298.709V360.114L4.75999 366.524V387.538C4.75999 389.299 5.26192 390.946 6.18213 392.188L16.4215 405.99C17.325 407.22 18.5798 407.92 19.8598 407.92H77.4899L82.2499 414.33H166.6L171.351 407.92H229.274C230.554 407.92 231.809 407.22 232.721 405.99L242.952 392.188C243.872 390.946 244.374 389.299 244.374 387.538V366.524L249.134 360.114V298.709L244.374 292.298V275.11C244.374 273.745 244.064 272.436 243.487 271.318L239.547 263.791V150.539L243.487 143.012Z" fill="#0ADFDB"/>
</svg>
