<svg width="232" height="348" viewBox="0 0 232 348" fill="none" xmlns="http://www.w3.org/2000/svg">
<path d="M225.97 231.068V325.497C225.97 326.464 225.659 327.355 225.106 328.028L215.578 339.621C215.033 340.284 214.277 340.663 213.506 340.663H18.4939C17.7227 340.663 16.9671 340.284 16.4217 339.621L6.89433 328.028C6.33343 327.355 6.02962 326.464 6.02962 325.497V231.068C6.02962 230.329 6.21658 229.618 6.56714 229.011L12.8694 218.129C13.4147 217.2 13.703 216.101 13.703 214.954V133.046C13.703 131.899 13.4147 130.8 12.8694 129.871L6.56714 118.989C6.21658 118.392 6.02962 117.671 6.02962 116.932V22.4935C6.02962 21.5456 6.33343 20.6451 6.89433 19.9721L16.4217 8.37938C16.9671 7.71585 17.7227 7.33669 18.4939 7.33669H213.506C214.277 7.33669 215.033 7.71585 215.578 8.37938L225.106 19.9721C225.659 20.6451 225.97 21.5456 225.97 22.4935V116.932C225.97 117.671 225.783 118.392 225.433 118.989L219.131 129.871C218.585 130.8 218.297 131.899 218.297 133.046V214.954C218.297 216.101 218.585 217.2 219.131 218.129L225.433 229.011C225.783 229.618 225.97 230.329 225.97 231.068ZM226.742 120.117C227.279 119.179 227.567 118.079 227.567 116.932V101.605L232 96.2206V44.6458L227.567 39.2617V22.4935C227.567 21.0243 227.1 19.6403 226.243 18.5977L216.716 7.00493C215.874 5.97173 214.698 5.38403 213.506 5.38403H159.567L155.142 0H76.5933L72.1606 5.38403H18.4939C17.302 5.38403 16.1335 5.97173 15.2922 7.00493L5.75696 18.5977C4.90004 19.6403 4.43262 21.0243 4.43262 22.4935V39.2617L0 44.6458V96.2206L4.43262 101.605V116.932C4.43262 118.079 4.71307 119.179 5.25839 120.117L9.01326 126.591V221.418L5.25839 227.883C4.71307 228.821 4.43262 229.921 4.43262 231.068V245.504L0 250.888V302.463L4.43262 307.847V325.497C4.43262 326.976 4.90004 328.36 5.75696 329.402L15.2922 340.995C16.1335 342.028 17.302 342.616 18.4939 342.616H72.1606L76.5933 348H155.142L159.567 342.616H213.506C214.698 342.616 215.866 342.028 216.716 340.995L226.243 329.402C227.1 328.36 227.567 326.976 227.567 325.497V307.847L232 302.463V250.888L227.567 245.504V231.068C227.567 229.921 227.279 228.821 226.742 227.883L223.072 221.561V126.439L226.742 120.117Z" fill="#FC62FF"/>
</svg>
